<?xml version="1.0"?><svg width="231" height="237.5" xmlns="http://www.w3.org/2000/svg">
 <title>heat symbol</title>
 <g>
  <title>Layer 1</title>
  <path d="m61.75,15l1.25,-3l6,1.5l6,1.5l-0.25,4q-0.25,4 -4.25,14.5q-4,10.5 -5,20q-1,9.5 2.25,16.75q3.25,7.25 9.5,15.5q6.25,8.25 8.25,14.25q2,6 0.5,20.5q-1.5,14.5 -5.75,23.5q-4.25,9 -5.5,10q-1.25,1 -3.25,3q-2,2 -2.25,2.25l-0.25,0.25l-2.5,-1.5q-2.5,-1.5 -5.5,-4.5l-3,-3l4.75,-6.75q4.75,-6.75 6.75,-12.25q2,-5.5 2.5,-15q0.5,-9.5 -3,-15.5q-3.5,-6 -9,-13.5q-5.5,-7.5 -7.5,-12.5q-2,-5 -2.5,-10q-0.5,-5 2,-19q2.5,-14 5.5,-21q3,-7 4.25,-10z" id="path4" stroke="#ff0000" fill-rule="evenodd" fill="#ff0000"/>
  <path d="m94.25,15l1.75,-5l7,2.5l7,2.5l-2.25,7q-2.25,7 -5.25,16q-3,9 -3.5,16.5q-0.5,7.5 3,15.5q3.5,8 9,15q5.5,7 7.5,12q2,5 2.5,12q0.5,7 -1.25,16q-1.75,9 -3,10.5q-1.25,1.5 -5,8.25q-3.75,6.75 -6.25,9.75l-2.5,3l-4,-1.5q-4,-1.5 -5.75,-2.75l-1.75,-1.25l1.5,-3.5q1.5,-3.5 4.5,-8.5q3,-5 6,-14q3,-9 1.5,-17.5q-1.5,-8.5 -6,-13.5q-4.5,-5 -6.5,-8q-2,-3 -4,-6.5q-2,-3.5 -3.5,-9q-1.5,-5.5 0,-21q1.5,-15.5 4.5,-22.5q3,-7 4.75,-12z" id="path6" stroke-width="0px" stroke="#ff0000" fill-rule="evenodd" fill="#ff0000"/>
  <path d="m124.5,21l5,-12l3.25,1.25q3.25,1.25 6.5,3l3.25,1.75l-1.5,4.5q-1.5,4.5 -5.5,16.5q-4,12 -2.5,23.5q1.5,11.5 6.75,18.75q5.25,7.25 7,9q1.75,1.75 4.25,9.25q2.5,7.5 1,20q-1.5,12.5 -5.5,20q-4,7.5 -7.25,13.5l-3.25,6l-6.5,-2.5l-6.5,-2.5l2.25,-6q2.25,-6 7.25,-15.5q5,-9.5 5.5,-16q0.5,-6.5 -2.5,-12.5q-3,-6 -9,-14q-6,-8 -8,-15q-2,-7 -0.5,-23q1.5,-16 6.5,-28z" id="path8" stroke-width="0px" stroke="#ff0000" fill-rule="evenodd" fill="#ff0000"/>
 </g>
</svg>