<?xml version="1.0"?><svg width="793.7007874015749" height="589.1866666666666" xmlns="http://www.w3.org/2000/svg" xmlns:xlink="http://www.w3.org/1999/xlink">
 <defs>
  <linearGradient y2="245.0005" y1="11" x2="128.9995" x1="128.9995" id="XMLID_6_" gradientUnits="userSpaceOnUse">
   <stop stop-color="#ffffff" stop-opacity="0" offset="0" id="stop5111"/>
   <stop stop-color="#ffffff" offset="1" id="stop5112"/>
  </linearGradient>
  <linearGradient y2="0.15625" y1="0.859375" xlink:href="#XMLID_6_" x2="0.4375" x1="0.447917" id="linearGradient11748"/>
 </defs>
 <g>
  <title>Layer 1</title>
  <g externalResourcesRequired="false" transform="matrix(20.3109 0 0 20.3109 -1357.41 -750.01)" id="g17596">
   <path fill="#ffffff" fill-rule="evenodd" stroke="#000000" stroke-width="0.705436" stroke-linecap="round" stroke-linejoin="round" stroke-miterlimit="4" id="rect1171" d="m79.295036,41.955601c-0.359306,0 -0.64856,0.289261 -0.64856,0.64856l0,14.856369c0,0.35931 0.289253,0.64856 0.64856,0.64856l10.478371,0c0.359314,0 0.64856,-0.289249 0.64856,-0.64856l0,-11.094688c0,-0.35931 -4.699486,-4.41024 -5.0588,-4.41024l-6.06813,0z"/>
   <path fill="#ffffff" fill-rule="evenodd" stroke="#000000" stroke-width="0.705436" stroke-linecap="round" stroke-linejoin="round" stroke-miterlimit="4" id="rect1794" d="m85.521278,42.009739l-0.014748,3.42728c0,0.35931 0.289261,0.648571 0.64856,0.648571l4.133926,0l-4.767738,-4.075851z"/>
   <path fill="#ffffff" fill-rule="evenodd" stroke-width="0.027658" stroke-miterlimit="4" id="rect12991" d="m79.431168,42.307491l-0.43,0.272839l6.15535,0l0,-0.260689l-5.725349,-0.01215z"/>
   <path fill="#ffffff" fill-opacity="0.401487" fill-rule="evenodd" stroke-width="0.027658" stroke-miterlimit="4" id="path14235" d="m90.064438,57.321819c0.032692,0.26754 -0.03476,0.328732 -0.427841,0.402611l0.088531,-11.287399l0.311249,0l0.028061,10.884789z"/>
  </g>
 </g>
</svg>