<?xml version="1.0" encoding="UTF-8" standalone="no"?>
<!-- Created with Inkscape (http://www.inkscape.org/) -->

<svg
   xmlns:svg="http://www.w3.org/2000/svg"
   xmlns="http://www.w3.org/2000/svg"
   version="1.1"
   width="93"
   height="38.5"
   viewBox="0 0 93 38.5"
   id="svg2"
   xml:space="preserve"><defs
     id="defs249" /><path
     d="M 10.069,32.26 18.876,18.813 10.896,6.49 h 6.082 l 5.168,8.279 5.063,-8.279 h 6.029 l -8.016,12.516 8.807,13.254 h -6.275 l -5.713,-8.912 -5.73,8.912 h -6.242 z"
     id="path241"
     style="fill:#ff3300;fill-opacity:1" /><path
     d="M 34.081,32.26 42.888,18.813 34.907,6.49 h 6.082 l 5.168,8.279 5.063,-8.279 h 6.029 L 49.233,19.006 58.04,32.26 h -6.275 l -5.713,-8.912 -5.73,8.912 h -6.241 z"
     id="path243"
     style="fill:#ff3300;fill-opacity:1" /><path
     d="M 58.093,32.26 66.9,18.813 58.919,6.49 h 6.082 l 5.168,8.279 5.063,-8.279 h 6.029 l -8.016,12.516 8.807,13.254 h -6.275 l -5.713,-8.912 -5.73,8.912 h -6.241 z"
     id="path245"
     style="fill:#ff3300;fill-opacity:1" /></svg>