<?xml version="1.0" encoding="UTF-8" standalone="no"?>
<!-- Created with Inkscape (http://www.inkscape.org/) -->

<svg
   xmlns:dc="http://purl.org/dc/elements/1.1/"
   xmlns:cc="http://creativecommons.org/ns#"
   xmlns:rdf="http://www.w3.org/1999/02/22-rdf-syntax-ns#"
   xmlns:svg="http://www.w3.org/2000/svg"
   xmlns="http://www.w3.org/2000/svg"
   xmlns:sodipodi="http://sodipodi.sourceforge.net/DTD/sodipodi-0.dtd"
   xmlns:inkscape="http://www.inkscape.org/namespaces/inkscape"
   width="477.68491"
   height="82.75602"
   id="svg2"
   version="1.1"
   inkscape:version="0.47 r22583"
   sodipodi:docname="radiator.svg">
  <title
     id="title3034">Radiator</title>
  <defs
     id="defs4" />
  <sodipodi:namedview
     id="base"
     pagecolor="#ffffff"
     bordercolor="#666666"
     borderopacity="1.0"
     inkscape:pageopacity="0.0"
     inkscape:pageshadow="2"
     inkscape:zoom="0.98994949"
     inkscape:cx="264.02178"
     inkscape:cy="20.440631"
     inkscape:document-units="px"
     inkscape:current-layer="layer1"
     showgrid="false"
     inkscape:window-width="1280"
     inkscape:window-height="753"
     inkscape:window-x="-4"
     inkscape:window-y="-4"
     inkscape:window-maximized="1" />
  <metadata
     id="metadata7">
    <rdf:RDF>
      <cc:Work
         rdf:about="">
        <dc:format>image/svg+xml</dc:format>
        <dc:type
           rdf:resource="http://purl.org/dc/dcmitype/StillImage" />
        <dc:title>Radiator</dc:title>
        <cc:license
           rdf:resource="http://creativecommons.org/publicdomain/zero/1.0/" />
        <dc:date>2011-07-21</dc:date>
        <dc:creator>
          <cc:Agent>
            <dc:title>mazeo</dc:title>
          </cc:Agent>
        </dc:creator>
        <dc:publisher>
          <cc:Agent>
            <dc:title>openclipart.org</dc:title>
          </cc:Agent>
        </dc:publisher>
        <dc:language>en</dc:language>
        <dc:subject>
          <rdf:Bag>
            <rdf:li>radiator</rdf:li>
            <rdf:li>baseboard radiator</rdf:li>
            <rdf:li>heater</rdf:li>
            <rdf:li>baseboard heater</rdf:li>
            <rdf:li>room heater</rdf:li>
            <rdf:li>space heater</rdf:li>
          </rdf:Bag>
        </dc:subject>
        <dc:description>A baseboard radiator.</dc:description>
        <dc:contributor>
          <cc:Agent>
            <dc:title>mazeo</dc:title>
          </cc:Agent>
        </dc:contributor>
      </cc:Work>
      <cc:License
         rdf:about="http://creativecommons.org/licenses/publicdomain/">
        <cc:permits
           rdf:resource="http://creativecommons.org/ns#Reproduction" />
        <cc:permits
           rdf:resource="http://creativecommons.org/ns#Distribution" />
        <cc:permits
           rdf:resource="http://creativecommons.org/ns#DerivativeWorks" />
      </cc:License>
    </rdf:RDF>
  </metadata>
  <g
     inkscape:label="Layer 1"
     inkscape:groupmode="layer"
     id="layer1"
     transform="translate(-110.97822,-470.0468)">
    <g
       id="g3022"
       transform="matrix(0.6454579,0,0,0.6454579,218.11397,177.1107)">
      <path
         style="fill:#95916a"
         d="m 185.99783,578.61915 c -262.89769,-2.66368 -329.18711,-3.5904 -330.20779,-4.61627 -0.70237,-0.70595 -3.31006,-5.93602 -5.79485,-11.62238 -3.44222,-7.87738 -5.8692,-16.21009 -10.1941,-35 -5.48997,-23.85166 -5.67951,-25.15355 -5.77441,-39.66117 -0.0762,-11.64996 0.23689,-15.58036 1.40189,-17.5986 1.4422,-2.49846 12.35704,-12.73764 16.50478,-15.48308 1.66611,-1.10282 61.12887,-1.07279 352,0.17778 192.49737,0.82762 350.95979,1.70362 352.13872,1.94665 1.17892,0.24304 5.29833,4.06898 9.15424,8.50209 6.9514,7.99198 7.02095,8.12957 8.21804,16.25768 1.7244,11.70858 0.1208,24.97739 -6.52977,54.02979 -6.12899,26.77389 -11.76915,45.17863 -14.12172,46.08139 -1.90597,0.73139 23.26849,0.93825 -366.79503,-3.01388 z"
         id="path3032" />
      <path
         style="fill:#636048"
         d="m 205.92857,577.66294 c -177.1,-1.82295 -328.27949,-3.45601 -335.95443,-3.62903 l -13.95443,-0.31458 -4.71612,-11 c -3.53496,-8.24505 -6.00468,-16.63513 -9.86113,-33.5 -6.04975,-26.45651 -7.87322,-41.68292 -6.26144,-52.28434 1.09189,-7.18189 1.12897,-7.24523 7.92229,-13.53368 3.75389,-3.47491 7.72526,-6.92271 8.82526,-7.66177 1.91745,-1.28829 123.12156,-0.96944 654.12303,1.72078 l 51.12303,0.25901 4.87697,5.41158 c 7.90384,8.77026 9.13724,10.89077 10.33489,17.76817 1.81184,10.40437 -0.24488,26.85577 -6.97855,55.82025 -3.1966,13.75 -7.31216,29.275 -9.14569,34.5 l -3.33368,9.5 -12.5,0.12902 c -6.875,0.071 -157.4,-1.36247 -334.5,-3.18541 z M 557.14123,554.84 c 0.20413,-0.20413 2.89922,-10.66479 5.98908,-23.24591 7.74082,-31.5186 9.25887,-50.61058 4.47954,-56.33757 -1.65988,-1.98901 -2.97337,-2.02113 -103.18128,-2.52324 -55.825,-0.27972 -171.475,-0.73718 -257,-1.01657 -85.525,-0.27939 -202.53497,-0.8013 -260.02215,-1.15981 -76.86083,-0.47931 -105.08059,-0.35295 -106.63229,0.47749 -3.39535,1.81714 -4.51041,14.64352 -2.45026,28.18494 1.10386,7.25571 11.12974,49.31134 11.95893,50.16422 0.67147,0.69065 155.07856,2.3767 308.14577,3.3648 48.675,0.31422 98.625,0.74719 111,0.96216 12.375,0.21497 76.275,0.70249 142,1.08337 65.725,0.38088 119.63968,0.8096 119.8104,0.95271 0.47075,0.39462 25.47625,-0.48058 25.90226,-0.90659 z M 406.22179,509.72291 c -0.16127,-0.13723 -64.64322,-0.54047 -143.29322,-0.89609 -78.65,-0.35562 -154.925,-0.85522 -169.5,-1.11024 -14.575,-0.25501 -70.15,-0.70602 -123.5,-1.00224 -53.35,-0.29621 -99.925,-0.77679 -103.5,-1.06794 -11.15068,-0.90813 -10.99667,-0.82157 -11.02445,-6.19612 -0.0135,-2.60202 -0.48239,-6.71768 -1.0421,-9.14591 -0.78431,-3.40265 -0.72138,-4.61786 0.27445,-5.29983 0.73788,-0.50532 31.10254,-0.64926 70.7921,-0.33557 38.225,0.30211 107.525,0.77443 154,1.0496 46.475,0.27518 171.125,1.01443 277,1.64279 105.875,0.62837 193.50412,1.51414 194.73137,1.96839 1.75499,0.64959 2.13621,1.41981 1.78565,3.60774 -0.24514,1.53001 -0.71693,5.76665 -1.04842,9.41475 l -0.60271,6.63292 -4.1605,0.66529 c -3.74808,0.59934 -140.21055,0.66952 -140.91217,0.0725 z m -524.79322,-13.0626 c 0,-0.24254 -0.70156,-0.44098 -1.55902,-0.44098 -0.85746,0 -1.27636,0.45734 -0.9309,1.01631 0.57081,0.92358 2.48992,0.48015 2.48992,-0.57533 z"
         id="path3030" />
      <path
         style="fill:#985119"
         d="m 172.16208,576.77006 c -189.11543,-1.91282 -315.11954,-3.55636 -315.6509,-4.11722 -0.48642,-0.51343 -2.79418,-5.43351 -5.12837,-10.93351 -4.79177,-11.29078 -15.00314,-53.71508 -14.80281,-61.5 l 0.1158,-4.5 0.74448,4.5 c 0.69487,4.20019 8.82059,38.92318 11.05325,47.23299 0.83199,3.09663 3.65103,6.05806 5.93504,6.23484 0.275,0.0213 2.11748,1.27473 4.09439,2.78543 3.63366,2.77674 5.90561,3.48963 5.90561,1.85304 0,-0.50053 1.86976,-0.43206 4.25,0.15563 4.88736,1.2067 8.01808,1.26635 10.50374,0.20012 3.5645,-1.529 7.6899,-0.43134 10.4907,2.79129 2.14159,2.46415 3.00925,2.89297 3.95,1.95222 0.93766,-0.93766 0.93889,-1.47223 0.006,-2.40556 -1.60049,-1.60048 -1.5178,-2.8 0.19301,-2.8 0.76615,0 1.67175,0.72639 2.01244,1.6142 0.43438,1.13197 1.41964,1.46123 3.29806,1.10214 1.536771,-0.29377 3.673827,0.14002 5.013187,1.0176 2.108,1.38122 2.50952,1.37131 4.13766,-0.10214 2.25818,-2.04362 3.79976,-2.07227 4.90841,-0.0912 0.88162,1.57537 4.23723,1.06254 4.23723,-0.64757 0,-0.49115 0.5051,-0.89301 1.12244,-0.89301 0.7618,0 0.71116,0.49557 -0.15761,1.54238 -1.7151,2.06656 0.35952,4.53327 2.23517,2.65762 1.55324,-1.55324 5.51653,-1.55042 6.03476,0.004 0.31242,0.93725 2.47299,0.92848 9.74378,-0.0396 6.46523,-0.86078 9.66249,-0.9237 10.3819,-0.20429 0.57176,0.57176 1.77982,1.03956 2.68457,1.03956 0.90476,0 2.4595,0.9 3.45499,2 0.99549,1.1 2.86523,2 4.15499,2 2.54583,0 2.98283,-0.96218 1.23214,-2.71287 -2.13685,-2.13685 -0.0685,-3.12052 4.25424,-2.02328 3.61731,0.91817 4.32657,0.81669 5.49911,-0.78686 1.2487,-1.70769 1.47336,-1.72256 3.10284,-0.20541 5.68981,5.29759 6.52245,5.84041 8.05597,5.25194 1.32862,-0.50983 1.38445,-0.79193 0.29056,-1.46799 -2.00269,-1.23773 1.27737,-2.05675 7.66015,-1.91271 3.7197,0.0839 5.25,0.51762 5.25,1.48783 0,1.85942 1.95033,1.72428 4.17532,-0.28931 1.45319,-1.31512 2.32233,-1.43562 4.19626,-0.58181 1.86972,0.85191 2.70018,0.74014 3.97533,-0.53501 1.48249,-1.4825 1.79929,-1.4358 3.94693,0.5818 2.93325,2.75564 6.01952,2.78117 10.38063,0.0858 2.09283,-1.29344 5.61569,-2.25319 9.11803,-2.48406 3.13912,-0.20693 6.57941,-0.49591 7.64509,-0.64217 1.4244,-0.1955 2.19107,0.59485 2.89466,2.98406 1.18398,4.02054 3.23933,4.15856 5.41723,0.36379 2.28839,-3.9873 4.80117,-5.42464 7.22016,-4.13004 1.4928,0.79892 2.13504,0.65162 2.86779,-0.65774 0.8844,-1.58034 1.05068,-1.58075 2.62482,-0.007 0.92433,0.92433 2.30934,1.6806 3.07779,1.6806 0.77266,0 1.16203,0.61281 0.8711,1.37096 -0.28934,0.75402 0.21539,1.65548 1.12163,2.00324 2.43809,0.93559 3.787,-0.28398 2.29822,-2.07784 -1.05244,-1.26811 -0.87316,-1.84379 1.06223,-3.41098 2.65684,-2.15138 5.2914,-2.48665 4.9929,-0.63538 -0.35576,2.20633 1.27569,4.75 3.04655,4.75 0.94529,0 2.78357,-1.1335 4.08508,-2.51889 1.37114,-1.45951 3.99613,-2.77951 6.24143,-3.13854 2.13127,-0.34081 4.51984,-1.26445 5.30793,-2.05254 0.78809,-0.78809 1.43289,-1.04074 1.43289,-0.56146 0,0.47929 -0.54,1.41143 -1.2,2.07143 -0.93333,0.93333 -0.92022,1.2 0.059,1.2 0.69246,0 1.01004,0.40285 0.70574,0.89522 -0.6325,1.02341 1.93343,2.27326 2.8288,1.37789 0.324,-0.324 0.0789,-1.20387 -0.54474,-1.95527 -1.375,-1.65678 -1.11819,-1.96114 2.39974,-2.84409 2.63344,-0.66095 2.71931,-0.56312 2.12295,2.41872 -0.48685,2.43423 -0.27705,3.10753 0.96831,3.10753 0.8744,0 2.08703,-0.92905 2.694743,-2.06457 0.88373,-1.65126 1.39124,-1.82694 2.53518,-0.87755 1.76356,1.46363 1.85374,3.60458 0.18026,4.27984 -0.74674,0.30132 -0.54544,0.53617 0.5,0.58333 0.9625,0.0434 1.75,-0.2862 1.75,-0.73249 0,-0.44629 0.91753,-1.79629 2.03896,-3 2.36727,-2.54097 6.16195,-2.85633 7.98198,-0.66333 1.13091,1.36266 1.4597,1.34978 3.0848,-0.12093 1.5075,-1.36426 3.49501,-1.5699 11.60662,-1.20087 9.92278,0.45142 15.62501,-0.71554 16.51296,-3.37938 0.31095,-0.93287 1.22867,-0.85933 3.84162,0.30785 3.52113,1.57285 8.64012,1.78521 10.80349,0.44818 0.66945,-0.41374 1.83241,-0.24167 2.58435,0.38239 0.93983,0.77999 1.56972,0.8069 2.01521,0.0861 1.11178,-1.79819 3.52999,-1.14641 3.52999,0.95218 0,1.11111 0.66667,2 1.5,2 0.825,0 1.5,-0.65917 1.5,-1.46482 0,-3.5865 8.1372,-4.01585 10.00393,-0.52784 1.11514,2.08367 5.88041,3.50832 7.22785,2.16088 0.58998,-0.58998 0.53588,-1.19378 -0.14465,-1.61437 -2.43516,-1.50501 -0.8005,-2.55385 3.98026,-2.55385 4.61231,0 5.01038,0.17961 4.43261,2 -0.45047,1.41932 -0.1797,2 0.93261,2 0.90072,0 1.56739,-0.85067 1.56739,-2 0,-1.70764 0.62127,-1.98009 4.25,-1.86382 2.3375,0.0749 3.27018,0.32692 2.07262,0.56004 -1.19756,0.23312 -2.71516,1.07183 -3.37244,1.86381 -0.99688,1.20117 -0.67562,1.43997 1.93716,1.43997 1.89475,0 3.80879,-0.79016 4.84469,-2 1.58522,-1.8514 2.94994,-2 18.36777,-2 17.80373,0 19.81544,0.54096 18.41543,4.95201 -0.37796,1.19084 -0.20327,2.04799 0.41738,2.04799 0.58707,0 1.06739,-1.59863 1.06739,-3.55251 l 0,-3.55251 58.75,0.58221 c 143.31335,1.42024 249.02796,1.49528 250.12157,0.17755 0.58364,-0.70323 3.54301,-11.77996 6.57639,-24.61494 3.03338,-12.83498 5.74852,-23.56961 6.03364,-23.85473 1.37509,-1.37509 0.0574,6.05502 -5.05646,28.51108 -3.06617,13.46436 -7.00367,28.60337 -8.75,33.64225 l -3.17514,9.1616 -33,0.11723 c -18.15,0.0645 -174.64492,-1.31545 -347.76649,-3.0665 z M 69.42857,567.66031 c 0,-0.79254 -0.675,-1.44098 -1.5,-1.44098 -1.50623,0 -2.05568,2.11099 -0.86052,3.30615 0.93324,0.93324 2.36052,-0.19452 2.36052,-1.86517 z m 47.2,-2.64098 c -0.93333,-0.93333 -1.2,-0.66667 -1.2,1.2 0,1.86667 0.26667,2.13333 1.2,1.2 0.93333,-0.93333 0.93333,-1.46667 0,-2.4 z m -173.71008,1.18369 c -0.34546,-0.55897 -1.04702,-0.75742 -1.55902,-0.44098 -1.38704,0.85723 -1.12841,1.45729 0.62812,1.45729 0.85746,0 1.27636,-0.45734 0.9309,-1.01631 z m 113.51008,-1.54271 c 0,-0.24254 -0.45,-0.44098 -1,-0.44098 -0.55,0 -1,0.47656 -1,1.05902 0,0.58246 0.45,0.7809 1,0.44098 0.55,-0.33992 1,-0.81648 1,-1.05902 z m 67,-1 c 0,-0.24254 -0.45,-0.44098 -1,-0.44098 -0.55,0 -1,0.47656 -1,1.05902 0,0.58246 0.45,0.7809 1,0.44098 0.55,-0.33992 1,-0.81648 1,-1.05902 z m 16,-0.38196 c 0,-1.35726 -1.76453,-2.24903 -2.40372,-1.21481 -0.59765,0.96702 0.26831,2.15579 1.57039,2.15579 0.45833,0 0.83333,-0.42344 0.83333,-0.94098 z m 6,-0.55902 c 0,-0.825 -0.42344,-1.5 -0.94098,-1.5 -1.26098,0 -2.1641,1.56159 -1.36517,2.36052 1.12619,1.12618 2.30615,0.68589 2.30615,-0.86052 z m 8.43362,-0.54698 c -1.06349,-0.38608 -2.14559,-0.50899 -2.40466,-0.27312 -0.81326,0.74041 2.32534,2.21917 3.35692,1.58161 0.53975,-0.33358 0.11124,-0.9224 -0.95226,-1.30849 z m 233.56638,-2.51204 c 0,-0.24254 -0.70156,-0.44098 -1.55902,-0.44098 -0.85746,0 -1.27636,0.45734 -0.9309,1.01631 0.57081,0.92358 2.48992,0.48015 2.48992,-0.57533 z m -236.5,-0.44098 c -0.33992,-0.55 -1.26648,-1 -2.05902,-1 -0.79254,0 -1.44098,0.45 -1.44098,1 0,0.55 0.92656,1 2.05902,1 1.13246,0 1.7809,-0.45 1.44098,-1 z m -169.83333,4.33333 c -0.36667,-0.36666 -0.66667,-1.13166 -0.66667,-1.7 0,-0.6266 0.46577,-0.56756 1.18333,0.15 0.65084,0.65084 0.95084,1.41584 0.66667,1.7 -0.28417,0.28417 -0.81667,0.21667 -1.18333,-0.15 z m 552.25,-53.72943 c -0.22917,-0.21786 -48.11667,-0.67698 -106.41667,-1.02027 -176.63812,-1.0401 -389.0919,-2.47959 -458.5,-3.10659 -26.675,-0.24097 -59.36033,-0.46971 -72.63407,-0.50832 -13.27375,-0.0386 -24.41755,-0.35367 -24.76401,-0.70013 -0.6983,-0.69831 4.28374,-6.26859 5.60661,-6.26859 0.45889,0 1.34693,1.125 1.97342,2.5 1.52538,3.34784 2.55038,3.16679 7.0768,-1.25 l 3.84307,-3.75 73.19909,0.16077 c 40.2595,0.0884 95.47409,0.2157 122.69909,0.28282 69.3812,0.17108 70.18297,0.16147 69.56819,-0.83325 -0.97976,-1.58529 -51.08879,-2.5331 -198.31819,-3.75119 l -79.25,-0.65567 0,2.17964 c 0,3.63943 -2.41417,3.45471 -12.41864,-0.95018 -9.42891,-4.15147 -11.0238,-5.44219 -8.10752,-6.56128 0.81062,-0.31106 125.34812,0.14541 276.75,1.01438 329.92468,1.89359 414.84774,2.61866 416.58935,3.55681 1.98676,1.07021 -0.20514,2.38088 -7.62232,4.55785 -3.47002,1.01847 -6.71789,2.61552 -7.21747,3.549 -0.63092,1.17889 -2.59768,1.83734 -6.43971,2.15595 -3.04226,0.25229 -5.79336,0.72068 -6.11355,1.04088 -0.93264,0.93263 1.43273,4.60436 3.77305,5.85686 1.85176,0.99104 2.4107,0.78771 4.06049,-1.47708 2.3799,-3.26708 3.76532,-3.29944 6.71758,-0.15691 l 2.31988,2.46941 -2.71067,1.03059 c -3.07561,1.16935 -3.09724,1.1731 -3.6638,0.6345 z M 161.95503,495.41246 c -0.30789,-0.30789 -1.11479,-6.4e-4 -1.79313,0.68278 -0.98026,0.98762 -0.8654,1.10248 0.5598,0.5598 0.98622,-0.37553 1.54122,-0.93469 1.23333,-1.24258 z m 408.70554,6.80687 c 0,-1.925 0.2058,-2.7125 0.45733,-1.75 0.25152,0.9625 0.25152,2.5375 0,3.5 -0.25153,0.9625 -0.45733,0.175 -0.45733,-1.75 z m -734.94599,-12.5 c 0.007,-2.75 0.20172,-3.75631 0.43157,-2.23625 0.22986,1.52006 0.22371,3.77006 -0.0137,5 -0.23736,1.22994 -0.42542,-0.0137 -0.41792,-2.76375 z m 736.01365,-1.5 c 0,-3.025 0.18747,-4.2625 0.41659,-2.75 0.22913,1.5125 0.22913,3.9875 0,5.5 -0.22912,1.5125 -0.41659,0.275 -0.41659,-2.75 z m -735.78949,-10.5 0.47867,-7 8.21769,-7.75 8.21768,-7.75 33.0379,0.0105 c 29.82789,0.01 198.9539,0.78192 547.53789,2.5005 l 123.5,0.60888 6.22256,6.69006 c 5.89137,6.33399 8.39117,11.1356 8.16851,15.69006 -0.0538,1.1 -0.54309,0.32466 -1.08737,-1.72297 -0.74516,-2.80337 -2.26342,-4.63111 -6.14665,-7.39955 -2.83638,-2.02212 -5.51691,-4.28429 -5.95674,-5.02703 -0.43983,-0.74275 -1.6615,-1.35045 -2.71482,-1.35045 -1.05332,0 -2.38929,-0.88598 -2.96882,-1.96885 -1.58315,-2.95814 -7.88098,-2.51825 -9.07953,0.63417 -1.11452,2.93141 -2.28122,2.955 -4.1875,0.0847 l -1.49431,-2.25 -56.12767,-0.18208 c -34.15548,-0.11083 -56.12766,0.18277 -56.12766,0.74998 0,0.51264 -0.675,0.93208 -1.5,0.93208 -0.825,0 -1.5,-0.45 -1.5,-1 0,-1.66045 -33.49395,-1.31468 -34.88391,0.36011 -1.23969,1.49375 -6.17302,1.02352 -7.28987,-0.69484 -0.44551,-0.68545 -1.23011,-0.57496 -2.31584,0.32611 -1.34881,1.11941 -2.26313,1.1382 -5.11989,0.10518 -4.83532,-1.74847 -10.83727,-0.58983 -12.84898,2.48043 -2.09114,3.19148 -5.80778,3.31588 -5.36106,0.17944 0.22366,-1.57032 1.21979,-2.43505 3.31955,-2.88168 2.11297,-0.44944 2.36852,-0.6731 0.86431,-0.75644 -1.17463,-0.0651 -3.41396,0.54486 -4.97629,1.35541 -1.71275,0.88859 -3.203,1.1113 -3.75336,0.56094 -0.55036,-0.55036 -1.6208,-0.0436 -2.69604,1.27628 l -1.78326,2.18906 -1.09425,-2.85869 c -1.49757,-3.91233 -3.88707,-1.95868 -3.50433,2.86512 0.25616,3.22835 0.0639,3.49357 -2.5328,3.49357 -1.5455,0 -3.04741,-0.61868 -3.33758,-1.37485 -0.50321,-1.31134 -5.20292,-2.72589 -8.9364,-2.68972 -3.03278,0.0294 -4.13903,-0.0102 -8.53385,-0.30533 -3.83741,-0.2577 -4.25427,-0.071 -4,1.79111 0.23874,1.74839 -0.32325,2.12878 -3.53594,2.39332 -2.10088,0.17298 -4.48245,-0.23544 -5.29238,-0.90762 -1.1154,-0.9257 -1.75339,-0.94135 -2.63021,-0.0645 -1.44792,1.44792 -14.40305,1.54034 -15.28763,0.10906 -0.44417,-0.71868 -1.08536,-0.68562 -2.03813,0.10511 -1.03088,0.85556 -2.20893,0.86821 -4.55901,0.049 -2.23148,-0.7779 -3.5458,-0.79191 -4.44293,-0.0474 -0.89218,0.74045 -66.10901,0.85861 -217.60197,0.39425 -187.83646,-0.57575 -216.57709,-0.47271 -218.21959,0.78241 -1.14902,0.87801 -2.41874,3.96191 -3.23426,7.85534 l -1.34261,6.40984 0.47868,-7 z m 502.04368,-14.41287 c -0.77519,-1.25428 -3.55385,-1.47878 -3.55385,-0.28713 0,0.44 0.54,1.34 1.2,2 1.39799,1.39799 3.38351,-0.0468 2.35385,-1.71287 z m 144.95623,-0.0708 c -0.34546,-0.55897 0.0734,-1.01631 0.9309,-1.01631 1.75653,0 2.01516,0.60006 0.62812,1.45729 -0.512,0.31644 -1.21356,0.11799 -1.55902,-0.44098 z"
         id="path3028" />
      <path
         style="fill:#53503a"
         d="m 172.16208,576.77006 c -189.11543,-1.91282 -315.11954,-3.55636 -315.6509,-4.11722 -0.48642,-0.51343 -2.79418,-5.43351 -5.12837,-10.93351 -4.79177,-11.29078 -15.00314,-53.71508 -14.80281,-61.5 l 0.1158,-4.5 0.74448,4.5 c 0.69487,4.20019 8.82059,38.92318 11.05325,47.23299 0.83199,3.09663 3.65103,6.05806 5.93504,6.23484 0.275,0.0213 2.11748,1.27473 4.09439,2.78543 3.63366,2.77674 5.90561,3.48963 5.90561,1.85304 0,-0.50053 1.86976,-0.43206 4.25,0.15563 4.88736,1.2067 8.01808,1.26635 10.50374,0.20012 3.5645,-1.529 7.6899,-0.43134 10.4907,2.79129 2.14159,2.46415 3.00925,2.89297 3.95,1.95222 0.93766,-0.93766 0.93889,-1.47223 0.006,-2.40556 -1.60049,-1.60048 -1.5178,-2.8 0.19301,-2.8 0.76615,0 1.67175,0.72639 2.01244,1.6142 0.43438,1.13197 1.41964,1.46123 3.29806,1.10214 1.536771,-0.29377 3.673827,0.14002 5.013187,1.0176 2.108,1.38122 2.50952,1.37131 4.13766,-0.10214 2.25818,-2.04362 3.79976,-2.07227 4.90841,-0.0912 0.88162,1.57537 4.23723,1.06254 4.23723,-0.64757 0,-0.49115 0.5051,-0.89301 1.12244,-0.89301 0.7618,0 0.71116,0.49557 -0.15761,1.54238 -1.7151,2.06656 0.35952,4.53327 2.23517,2.65762 1.55324,-1.55324 5.51653,-1.55042 6.03476,0.004 0.31242,0.93725 2.47299,0.92848 9.74378,-0.0396 6.46523,-0.86078 9.66249,-0.9237 10.3819,-0.20429 0.57176,0.57176 1.77982,1.03956 2.68457,1.03956 0.90476,0 2.4595,0.9 3.45499,2 0.99549,1.1 2.86523,2 4.15499,2 2.54583,0 2.98283,-0.96218 1.23214,-2.71287 -2.13685,-2.13685 -0.0685,-3.12052 4.25424,-2.02328 3.61731,0.91817 4.32657,0.81669 5.49911,-0.78686 1.2487,-1.70769 1.47336,-1.72256 3.10284,-0.20541 5.68981,5.29759 6.52245,5.84041 8.05597,5.25194 1.32862,-0.50983 1.38445,-0.79193 0.29056,-1.46799 -2.00269,-1.23773 1.27737,-2.05675 7.66015,-1.91271 3.7197,0.0839 5.25,0.51762 5.25,1.48783 0,1.85942 1.95033,1.72428 4.17532,-0.28931 1.45319,-1.31512 2.32233,-1.43562 4.19626,-0.58181 1.86972,0.85191 2.70018,0.74014 3.97533,-0.53501 1.48249,-1.4825 1.79929,-1.4358 3.94693,0.5818 2.93325,2.75564 6.01952,2.78117 10.38063,0.0858 2.09283,-1.29344 5.61569,-2.25319 9.11803,-2.48406 3.13912,-0.20693 6.57941,-0.49591 7.64509,-0.64217 1.4244,-0.1955 2.19107,0.59485 2.89466,2.98406 1.18398,4.02054 3.23933,4.15856 5.41723,0.36379 2.28839,-3.9873 4.80117,-5.42464 7.22016,-4.13004 1.4928,0.79892 2.13504,0.65162 2.86779,-0.65774 0.8844,-1.58034 1.05068,-1.58075 2.62482,-0.007 0.92433,0.92433 2.30934,1.6806 3.07779,1.6806 0.77266,0 1.16203,0.61281 0.8711,1.37096 -0.28934,0.75402 0.21539,1.65548 1.12163,2.00324 2.43809,0.93559 3.787,-0.28398 2.29822,-2.07784 -1.05244,-1.26811 -0.87316,-1.84379 1.06223,-3.41098 2.65684,-2.15138 5.2914,-2.48665 4.9929,-0.63538 -0.35576,2.20633 1.27569,4.75 3.04655,4.75 0.94529,0 2.78357,-1.1335 4.08508,-2.51889 1.37114,-1.45951 3.99613,-2.77951 6.24143,-3.13854 2.13127,-0.34081 4.51984,-1.26445 5.30793,-2.05254 0.78809,-0.78809 1.43289,-1.04074 1.43289,-0.56146 0,0.47929 -0.54,1.41143 -1.2,2.07143 -0.93333,0.93333 -0.92022,1.2 0.059,1.2 0.69246,0 1.01004,0.40285 0.70574,0.89522 -0.6325,1.02341 1.93343,2.27326 2.8288,1.37789 0.324,-0.324 0.0789,-1.20387 -0.54474,-1.95527 -1.375,-1.65678 -1.11819,-1.96114 2.39974,-2.84409 2.63344,-0.66095 2.71931,-0.56312 2.12295,2.41872 -0.48685,2.43423 -0.27705,3.10753 0.96831,3.10753 0.8744,0 2.08703,-0.92905 2.694743,-2.06457 0.88373,-1.65126 1.39124,-1.82694 2.53518,-0.87755 1.76356,1.46363 1.85374,3.60458 0.18026,4.27984 -0.74674,0.30132 -0.54544,0.53617 0.5,0.58333 0.9625,0.0434 1.75,-0.2862 1.75,-0.73249 0,-0.44629 0.91753,-1.79629 2.03896,-3 2.36727,-2.54097 6.16195,-2.85633 7.98198,-0.66333 1.13091,1.36266 1.4597,1.34978 3.0848,-0.12093 1.5075,-1.36426 3.49501,-1.5699 11.60662,-1.20087 9.92278,0.45142 15.62501,-0.71554 16.51296,-3.37938 0.31095,-0.93287 1.22867,-0.85933 3.84162,0.30785 3.52113,1.57285 8.64012,1.78521 10.80349,0.44818 0.66945,-0.41374 1.83241,-0.24167 2.58435,0.38239 0.93983,0.77999 1.56972,0.8069 2.01521,0.0861 1.11178,-1.79819 3.52999,-1.14641 3.52999,0.95218 0,1.11111 0.66667,2 1.5,2 0.825,0 1.5,-0.65917 1.5,-1.46482 0,-3.5865 8.1372,-4.01585 10.00393,-0.52784 1.11514,2.08367 5.88041,3.50832 7.22785,2.16088 0.58998,-0.58998 0.53588,-1.19378 -0.14465,-1.61437 -2.43516,-1.50501 -0.8005,-2.55385 3.98026,-2.55385 4.61231,0 5.01038,0.17961 4.43261,2 -0.45047,1.41932 -0.1797,2 0.93261,2 0.90072,0 1.56739,-0.85067 1.56739,-2 0,-1.70764 0.62127,-1.98009 4.25,-1.86382 2.3375,0.0749 3.27018,0.32692 2.07262,0.56004 -1.19756,0.23312 -2.71516,1.07183 -3.37244,1.86381 -0.99688,1.20117 -0.67562,1.43997 1.93716,1.43997 1.89475,0 3.80879,-0.79016 4.84469,-2 1.58522,-1.8514 2.94994,-2 18.36777,-2 17.80373,0 19.81544,0.54096 18.41543,4.95201 -0.37796,1.19084 -0.20327,2.04799 0.41738,2.04799 0.58707,0 1.06739,-1.59863 1.06739,-3.55251 l 0,-3.55251 58.75,0.58221 c 143.31335,1.42024 249.02796,1.49528 250.12157,0.17755 0.58364,-0.70323 3.54301,-11.77996 6.57639,-24.61494 3.03338,-12.83498 5.74852,-23.56961 6.03364,-23.85473 1.37509,-1.37509 0.0574,6.05502 -5.05646,28.51108 -3.06617,13.46436 -7.00367,28.60337 -8.75,33.64225 l -3.17514,9.1616 -33,0.11723 c -18.15,0.0645 -174.64492,-1.31545 -347.76649,-3.0665 z M 69.42857,567.66031 c 0,-0.79254 -0.675,-1.44098 -1.5,-1.44098 -1.50623,0 -2.05568,2.11099 -0.86052,3.30615 0.93324,0.93324 2.36052,-0.19452 2.36052,-1.86517 z m 47.2,-2.64098 c -0.93333,-0.93333 -1.2,-0.66667 -1.2,1.2 0,1.86667 0.26667,2.13333 1.2,1.2 0.93333,-0.93333 0.93333,-1.46667 0,-2.4 z m -173.71008,1.18369 c -0.34546,-0.55897 -1.04702,-0.75742 -1.55902,-0.44098 -1.38704,0.85723 -1.12841,1.45729 0.62812,1.45729 0.85746,0 1.27636,-0.45734 0.9309,-1.01631 z m 113.51008,-1.54271 c 0,-0.24254 -0.45,-0.44098 -1,-0.44098 -0.55,0 -1,0.47656 -1,1.05902 0,0.58246 0.45,0.7809 1,0.44098 0.55,-0.33992 1,-0.81648 1,-1.05902 z m 67,-1 c 0,-0.24254 -0.45,-0.44098 -1,-0.44098 -0.55,0 -1,0.47656 -1,1.05902 0,0.58246 0.45,0.7809 1,0.44098 0.55,-0.33992 1,-0.81648 1,-1.05902 z m 16,-0.38196 c 0,-1.35726 -1.76453,-2.24903 -2.40372,-1.21481 -0.59765,0.96702 0.26831,2.15579 1.57039,2.15579 0.45833,0 0.83333,-0.42344 0.83333,-0.94098 z m 6,-0.55902 c 0,-0.825 -0.42344,-1.5 -0.94098,-1.5 -1.26098,0 -2.1641,1.56159 -1.36517,2.36052 1.12619,1.12618 2.30615,0.68589 2.30615,-0.86052 z m 8.43362,-0.54698 c -1.06349,-0.38608 -2.14559,-0.50899 -2.40466,-0.27312 -0.81326,0.74041 2.32534,2.21917 3.35692,1.58161 0.53975,-0.33358 0.11124,-0.9224 -0.95226,-1.30849 z m 233.56638,-2.51204 c 0,-0.24254 -0.70156,-0.44098 -1.55902,-0.44098 -0.85746,0 -1.27636,0.45734 -0.9309,1.01631 0.57081,0.92358 2.48992,0.48015 2.48992,-0.57533 z m -236.5,-0.44098 c -0.33992,-0.55 -1.26648,-1 -2.05902,-1 -0.79254,0 -1.44098,0.45 -1.44098,1 0,0.55 0.92656,1 2.05902,1 1.13246,0 1.7809,-0.45 1.44098,-1 z m -169.83333,4.33333 c -0.36667,-0.36666 -0.66667,-1.13166 -0.66667,-1.7 0,-0.6266 0.46577,-0.56756 1.18333,0.15 0.65084,0.65084 0.95084,1.41584 0.66667,1.7 -0.28417,0.28417 -0.81667,0.21667 -1.18333,-0.15 z m 543.56834,-54.0786 c -8.92902,-0.3182 -9.22596,-0.40313 -8.18835,-2.34191 0.59215,-1.10645 0.9364,-3.22697 0.76499,-4.71227 l -0.31165,-2.70055 -14.5,-0.24937 c -16.80312,-0.28897 -18.84821,0.33118 -14.73609,4.46851 2.35038,2.36479 4.07099,2.94622 11.5,3.88611 l 8.73609,1.10524 -14.90499,0.14476 c -14.52491,0.14106 -14.86163,0.0968 -13.20488,-1.73384 0.93505,-1.03322 1.7923,-3.17072 1.90498,-4.75 l 0.20489,-2.87141 -14.95607,-0.27791 c -8.22583,-0.15286 -15.55407,-0.0484 -16.28497,0.23203 -1.08265,0.41545 -1.04674,1.05558 0.19374,3.45442 1.3399,2.59107 2.21424,3.02163 7.28497,3.58738 14.07523,1.5704 13.77881,2.28978 -0.98767,2.39699 -8.1125,0.0589 -14.75,-0.0922 -14.75,-0.33575 0,-0.24356 0.96135,-2.07221 2.13634,-4.06366 1.26143,-2.13798 1.76881,-3.98835 1.23891,-4.51825 -1.0237,-1.0237 -30.95409,-1.72975 -31.93061,-0.75323 -0.35173,0.35173 0.14899,1.97433 1.1127,3.60576 1.61252,2.72979 2.33776,3.02112 9.09743,3.65456 4.03988,0.37856 7.34523,1.02834 7.34523,1.44395 0,0.81383 -23.98722,1.19479 -25.27581,0.40143 -0.4267,-0.26271 0.3608,-1.82845 1.75,-3.47941 3.11959,-3.70743 3.19624,-5.43538 0.27581,-6.21802 -3.70396,-0.99263 -25.4159,-0.70781 -28.25236,0.37061 l -2.63255,1.00089 2.13555,2.99911 c 1.75438,2.4638 2.88196,3.02022 6.31745,3.11741 2.30005,0.0651 5.53191,0.46184 7.18191,0.88169 1.84946,0.47061 -2.35113,0.80875 -10.95295,0.88169 l -13.95295,0.11831 3.94582,-4.04088 c 3.25577,-3.33422 3.68474,-4.20594 2.45295,-4.98469 -1.85797,-1.17462 -28.99935,-1.2566 -30.83504,-0.0931 -1.12289,0.71169 -1.12289,1.20538 0,3.02182 0.73819,1.19414 2.24217,2.3765 3.34217,2.62747 1.1,0.25097 4.7,1.08441 8,1.85209 l 6,1.39578 -15,0.10807 -15,0.10807 4.42251,-3.81366 c 2.70445,-2.33211 4.13833,-4.27347 3.69099,-4.99729 -0.86463,-1.399 -31.16994,-1.71035 -32.02366,-0.329 -1.07004,1.73135 4.0918,5.03057 10.41016,6.65373 3.575,0.91839 6.6875,1.85472 6.91667,2.08072 0.22916,0.226 -6.52084,0.38731 -15,0.35846 -14.80771,-0.0504 -15.31955,-0.11951 -12.95799,-1.75 6.02473,-4.15966 8.17062,-6.46824 7.05254,-7.58721 -0.65773,-0.65826 -6.28072,-1.2459 -13.81034,-1.44328 -20.07458,-0.52623 -23.03321,1.97896 -8.88482,7.52314 l 7.17042,2.8098 -14.3816,0.2783 c -12.80723,0.24784 -17.81926,-0.25484 -14.49059,-1.4533 0.61286,-0.22066 3.2615,-1.76291 5.88587,-3.42724 7.21044,-4.57272 5.30529,-5.39776 -12.46431,-5.39776 -8.17635,0 -15.215,0.34821 -15.64145,0.77381 -1.26178,1.25927 1.71584,3.50208 8.11085,6.10929 5.22681,2.13093 5.67449,2.51356 3.49475,2.98689 -1.375,0.29858 -5.2,0.41874 -8.5,0.26702 -3.3,-0.15172 -8.925,-0.35747 -12.5,-0.45722 l -6.5,-0.18137 6.12953,-2.89977 c 6.68237,-3.16131 8.38043,-4.84485 6.24859,-6.19514 -1.79368,-1.13609 -30.59521,-1.17029 -31.29552,-0.0372 -0.73796,1.19405 1.99719,3.4297 7.9174,6.47152 l 5,2.56901 -14.75,0.0466 c -8.1125,0.0256 -14.75,-0.14227 -14.75,-0.37307 0,-0.2308 2.17846,-1.14321 4.84102,-2.02757 4.95126,-1.64454 9.80351,-5.23815 8.64611,-6.40335 -0.35481,-0.3572 -5.89706,-0.96126 -12.31612,-1.34235 -6.41906,-0.38114 -12.34601,-0.75283 -13.17101,-0.82603 -0.825,-0.0732 -2.85,0.38729 -4.5,1.02329 l -3,1.15636 3,2.47281 c 1.65,1.36004 4.575,3.32898 6.5,4.37542 l 3.5,1.90262 -16,-0.0595 -16,-0.0595 6.569,-2.1463 c 9.56738,-3.12597 14.55846,-7.6172 8.51433,-7.66162 -1.71153,-0.0126 -1.81563,-0.18831 -0.58333,-0.98469 0.825,-0.53316 1.0275,-0.97627 0.45,-0.98469 -0.5775,-0.008 -1.48817,0.42286 -2.02372,0.95841 -0.63162,0.63162 -1.91431,0.48572 -3.65098,-0.41527 -4.04901,-2.10065 -43.04744,-2.9247 -198.5253,-4.1949 l -80.25,-0.65561 0,2.17742 c 0,3.63706 -2.4157,3.4518 -12.41864,-0.95242 -9.42891,-4.15147 -11.0238,-5.44219 -8.10752,-6.56128 0.81062,-0.31106 125.34812,0.14541 276.75,1.01438 329.92468,1.89359 414.84774,2.61866 416.58935,3.55681 1.98676,1.07021 -0.20514,2.38088 -7.62232,4.55785 -3.47002,1.01847 -6.71789,2.61552 -7.21747,3.549 -0.63092,1.17889 -2.59768,1.83734 -6.43971,2.15595 -3.04226,0.25229 -5.79336,0.72068 -6.11355,1.04088 -0.93264,0.93263 1.43273,4.60436 3.77305,5.85686 1.85176,0.99104 2.4107,0.78771 4.06049,-1.47708 2.3799,-3.26708 3.76532,-3.29944 6.71758,-0.15691 l 2.31988,2.46941 -2.71067,1.03059 c -1.49087,0.56683 -2.79387,0.93721 -2.89557,0.82306 -0.10169,-0.11415 -4.35415,-0.35613 -9.44989,-0.53773 z m -439.23501,-3.20207 -8.5,-0.57473 6,-0.82088 c 3.3,-0.45148 6.71921,-1.01767 7.59824,-1.25819 1.83163,-0.50116 4.21035,-5.09053 3.35545,-6.4738 -0.31445,-0.50878 0.56571,-0.92506 1.95591,-0.92506 1.70351,0 2.35975,0.43749 2.01273,1.34182 -0.28529,0.74343 1.2511,2.9373 3.44519,4.91953 2.17805,1.96773 3.69888,3.83892 3.37962,4.15818 -0.63048,0.63048 -6.01471,0.52785 -19.24714,-0.36687 z m 28,0.0586 c 0,-0.48879 1.6875,-1.17918 3.75,-1.5342 8.18761,-1.40934 9.16292,-1.79525 10.78195,-4.26619 1.38589,-2.11515 1.44237,-2.71243 0.32353,-3.42138 -0.92239,-0.58447 -0.34698,-0.86379 1.8009,-0.87421 2.56126,-0.0124 3.06682,0.32717 2.68137,1.80113 -0.44963,1.71938 2.81866,4.58562 9.16225,8.03517 1.51582,0.82428 -1.69188,1.09493 -13.25,1.11798 -8.3875,0.0167 -15.25,-0.36951 -15.25,-0.8583 z m -203.5,-1.11126 c -11.57043,-0.57633 -11.34834,-0.69356 2.96842,-1.5669 3.12901,-0.19087 4.68088,-1.01951 7.33672,-3.91753 1.85257,-2.0215 3.51824,-3.52553 3.70149,-3.34228 0.18325,0.18326 0.97935,2.20871 1.76912,4.50102 1.37515,3.99141 1.3468,4.19175 -0.66991,4.7331 -1.15821,0.31091 -2.33084,0.48091 -2.60584,0.3778 -0.275,-0.10312 -5.9,-0.45646 -12.5,-0.78521 z m 34,0 c -8.82328,-0.60984 -8.86838,-0.62577 -2.29705,-0.81103 7.94827,-0.22408 10.68693,-1.30223 13.33046,-5.24793 1.08163,-1.61441 2.2179,-2.93658 2.52505,-2.93816 0.86193,-0.004 4.7403,8.86502 4.13926,9.46607 -0.57549,0.57549 -3.83712,0.48906 -17.69772,-0.46895 z m 28.5,0.1165 c 0,-0.48593 2.91046,-1.06883 6.46769,-1.29534 5.07919,-0.32342 7.01134,-0.92256 9,-2.79081 1.39277,-1.30844 2.53231,-2.97554 2.53231,-3.70466 0,-2.82011 2.59066,-1.10696 4.43759,2.93448 1.06568,2.33191 2.11568,4.57733 2.33334,4.98983 0.21765,0.4125 -5.26676,0.75 -12.1876,0.75 -6.92083,0 -12.58333,-0.39758 -12.58333,-0.8835 z m 34.5,-0.1165 c 1.1,-0.47269 4.50331,-0.89106 7.56291,-0.92971 4.74046,-0.0599 5.96018,-0.48496 8.25,-2.87501 1.4779,-1.54259 2.68709,-3.34259 2.68709,-4 0,-0.6574 0.675,-1.19528 1.5,-1.19528 0.825,0 1.5,0.6122 1.5,1.36045 0,0.74825 1.11144,2.99825 2.46986,5 l 2.46987,3.63955 -14.21987,-0.0703 c -8.87557,-0.0439 -13.46819,-0.39328 -12.21986,-0.92971 z m 37,0 c 1.65,-0.41985 4.8725,-0.81661 7.16111,-0.88169 3.34287,-0.095 4.67149,-0.72488 6.75668,-3.20298 1.42757,-1.69657 2.34102,-3.49657 2.02988,-4 -0.31114,-0.50343 0.36085,-0.91533 1.49331,-0.91533 1.27237,0 2.05902,0.6504 2.05902,1.70239 0,0.93632 1.43828,3.18632 3.19617,5 l 3.19616,3.29761 -14.44616,-0.11831 c -8.83112,-0.0723 -13.28011,-0.41503 -11.44617,-0.88169 z m -172.90182,-0.73516 c -0.69568,-0.69567 4.29168,-6.26484 5.61035,-6.26484 0.45889,0 1.34693,1.125 1.97342,2.5 1.52268,3.34191 2.78984,3.15606 6.81805,-1 4.02984,-4.15774 6,-4.46451 6,-0.93426 0,1.41116 0.45986,3.42499 1.0219,4.47518 0.97713,1.82579 0.54392,1.90814 -9.88782,1.87977 -6.00035,-0.0163 -11.19151,-0.31145 -11.5359,-0.65585 z m 699.63382,-2.26484 c 0,-1.925 0.2058,-2.7125 0.45733,-1.75 0.25152,0.9625 0.25152,2.5375 0,3.5 -0.25153,0.9625 -0.45733,0.175 -0.45733,-1.75 z m -734.94599,-12.5 c 0.007,-2.75 0.20172,-3.75631 0.43157,-2.23625 0.22986,1.52006 0.22371,3.77006 -0.0137,5 -0.23736,1.22994 -0.42542,-0.0137 -0.41792,-2.76375 z m 736.01365,-1.5 c 0,-3.025 0.18747,-4.2625 0.41659,-2.75 0.22913,1.5125 0.22913,3.9875 0,5.5 -0.22912,1.5125 -0.41659,0.275 -0.41659,-2.75 z m -735.78949,-10.5 0.47867,-7 8.21769,-7.75 8.21768,-7.75 33.0379,0.0105 c 29.82789,0.01 198.9539,0.78192 547.53789,2.5005 l 123.5,0.60888 6.22256,6.69006 c 5.89137,6.33399 8.39117,11.1356 8.16851,15.69006 -0.0538,1.1 -0.54309,0.32466 -1.08737,-1.72297 -0.74516,-2.80337 -2.26342,-4.63111 -6.14665,-7.39955 -2.83638,-2.02212 -5.51691,-4.28429 -5.95674,-5.02703 -0.43983,-0.74275 -1.6615,-1.35045 -2.71482,-1.35045 -1.05332,0 -2.38929,-0.88598 -2.96882,-1.96885 -1.58315,-2.95814 -7.88098,-2.51825 -9.07953,0.63417 -1.11452,2.93141 -2.28122,2.955 -4.1875,0.0847 l -1.49431,-2.25 -56.12767,-0.18208 c -34.15548,-0.11083 -56.12766,0.18277 -56.12766,0.74998 0,0.51264 -0.675,0.93208 -1.5,0.93208 -0.825,0 -1.5,-0.45 -1.5,-1 0,-1.66045 -33.49395,-1.31468 -34.88391,0.36011 -1.23969,1.49375 -6.17302,1.02352 -7.28987,-0.69484 -0.44551,-0.68545 -1.23011,-0.57496 -2.31584,0.32611 -1.34881,1.11941 -2.26313,1.1382 -5.11989,0.10518 -4.83532,-1.74847 -10.83727,-0.58983 -12.84898,2.48043 -2.09114,3.19148 -5.80778,3.31588 -5.36106,0.17944 0.22366,-1.57032 1.21979,-2.43505 3.31955,-2.88168 2.11297,-0.44944 2.36852,-0.6731 0.86431,-0.75644 -1.17463,-0.0651 -3.41396,0.54486 -4.97629,1.35541 -1.71275,0.88859 -3.203,1.1113 -3.75336,0.56094 -0.55036,-0.55036 -1.6208,-0.0436 -2.69604,1.27628 l -1.78326,2.18906 -1.09425,-2.85869 c -1.49757,-3.91233 -3.88707,-1.95868 -3.50433,2.86512 0.25616,3.22835 0.0639,3.49357 -2.5328,3.49357 -1.5455,0 -3.04741,-0.61868 -3.33758,-1.37485 -0.50321,-1.31134 -5.20292,-2.72589 -8.9364,-2.68972 -3.03278,0.0294 -4.13903,-0.0102 -8.53385,-0.30533 -3.83741,-0.2577 -4.25427,-0.071 -4,1.79111 0.23874,1.74839 -0.32325,2.12878 -3.53594,2.39332 -2.10088,0.17298 -4.48245,-0.23544 -5.29238,-0.90762 -1.1154,-0.9257 -1.75339,-0.94135 -2.63021,-0.0645 -1.44792,1.44792 -14.40305,1.54034 -15.28763,0.10906 -0.44417,-0.71868 -1.08536,-0.68562 -2.03813,0.10511 -1.03088,0.85556 -2.20893,0.86821 -4.55901,0.049 -2.23148,-0.7779 -3.5458,-0.79191 -4.44293,-0.0474 -0.89218,0.74045 -66.10901,0.85861 -217.60197,0.39425 -187.83646,-0.57575 -216.57709,-0.47271 -218.21959,0.78241 -1.14902,0.87801 -2.41874,3.96191 -3.23426,7.85534 l -1.34261,6.40984 0.47868,-7 z m 502.04368,-14.41287 c -0.77519,-1.25428 -3.55385,-1.47878 -3.55385,-0.28713 0,0.44 0.54,1.34 1.2,2 1.39799,1.39799 3.38351,-0.0468 2.35385,-1.71287 z m 144.95623,-0.0708 c -0.34546,-0.55897 0.0734,-1.01631 0.9309,-1.01631 1.75653,0 2.01516,0.60006 0.62812,1.45729 -0.512,0.31644 -1.21356,0.11799 -1.55902,-0.44098 z"
         id="path3026" />
      <path
         style="fill:#29261d"
         d="m 539.1718,579.68106 c -0.13378,-0.10527 -33.76823,-0.48522 -74.74323,-0.84435 -124.43358,-1.09058 -370.77148,-3.48767 -417.5,-4.06264 -24.2,-0.29777 -76.73713,-0.83535 -116.74919,-1.19463 -51.11422,-0.45896 -73.01399,-0.98138 -73.63962,-1.75667 -1.7067,-2.11498 -9.2208,-20.77458 -8.83294,-21.93465 0.35583,-1.06428 5.24354,8.4123 9.02188,17.49217 1.48204,3.56155 1.69551,3.67621 7.86164,4.2227 3.48603,0.30895 44.81323,0.80768 91.83823,1.10828 47.025,0.3006 96.75,0.75536 110.5,1.01057 13.75,0.25522 60.325,0.70393 103.5,0.99714 43.175,0.29321 92.225,0.7436 109,1.00085 16.775,0.25726 67.625,0.70468 113,0.99427 45.375,0.28959 99.17366,0.78738 119.55259,1.10621 30.29553,0.47397 37.252,0.33525 38.14608,-0.76065 0.60142,-0.73718 2.51567,-5.39033 4.25389,-10.34033 3.08266,-8.77863 5.04744,-12.4579 5.04744,-9.45188 0,0.79647 -1.60086,6.25244 -3.55747,12.12437 l -3.55748,10.67623 -6.4493,-0.0978 c -3.54711,-0.0538 -6.55875,-0.18393 -6.69252,-0.28919 z m -21.48046,-71.27817 c -0.91273,-0.5797 -0.98083,-1.67982 -0.25967,-4.19436 0.64642,-2.25396 0.63751,-3.74859 -0.0263,-4.41241 -1.4059,-1.4059 -31.53505,-2.10055 -32.37199,-0.74636 -0.35686,0.57741 0.70083,2.58701 2.35043,4.46579 1.64959,1.87878 2.70949,3.70572 2.35534,4.05987 -0.35415,0.35415 -2.62423,0.64391 -5.04462,0.64391 -4.12153,0 -4.35266,-0.14275 -3.6431,-2.25 0.41669,-1.2375 0.78451,-3.375 0.81739,-4.75 l 0.0598,-2.5 -16.75,-0.27418 c -9.2125,-0.1508 -16.75,0.0822 -16.75,0.51787 0,0.43562 1.10431,2.41719 2.45403,4.40348 1.34972,1.98628 2.17472,3.89075 1.83334,4.23213 -0.76022,0.76021 -9.28737,0.83446 -9.28737,0.0809 0,-0.29691 0.88668,-2.27787 1.97039,-4.40213 1.5193,-2.97806 1.691,-4.08259 0.75,-4.82459 -0.67494,-0.5322 -14.62886,-1.25798 -31.22039,-1.62384 -16.5,-0.36385 -41.475,-1.09346 -55.5,-1.62136 -14.025,-0.5279 -65.55,-1.39723 -114.5,-1.93186 -48.95,-0.53463 -109.925,-1.21301 -135.5,-1.50751 -25.575,-0.29451 -88.22933,-0.81428 -139.23183,-1.15505 l -92.73184,-0.61958 -1.02432,2.69416 c -0.56337,1.48179 -1.35905,2.54509 -1.76816,2.36288 -0.40912,-0.1822 -4.45635,-1.8823 -8.99385,-3.77799 -4.5375,-1.89569 -8.25,-3.88172 -8.25,-4.4134 0,-0.62055 45.20643,-0.73624 126.25,-0.32309 69.4375,0.35399 219.85,1.11839 334.25,1.69867 202.80496,1.02871 228.5,1.35978 228.5,2.94412 0,0.42192 -2.68668,1.33728 -5.97041,2.03413 -4.31384,0.91546 -6.40121,1.92449 -7.52305,3.63664 -1.31715,2.01022 -2.37442,2.36964 -6.97058,2.36964 -2.97986,0 -5.67249,0.4119 -5.98363,0.91533 -0.31114,0.50343 0.59456,2.29422 2.01265,3.97953 1.4181,1.68531 2.29455,3.52341 1.94767,4.08467 -0.74357,1.20313 -4.48456,1.32525 -6.24988,0.20403 z m 14.21016,-0.22736 c -0.35481,-0.5741 -0.0825,-1.72168 0.60508,-2.55019 1.09379,-1.31794 1.43211,-1.32446 2.70441,-0.0522 0.79983,0.79983 1.14943,1.94741 0.77689,2.55019 -0.85865,1.38931 -3.24118,1.41972 -4.08638,0.0522 z M 371.62269,507.3609 c -2.26752,-0.63089 -2.24565,-0.69981 1.31449,-4.14157 l 3.62038,-3.5 2.68551,3.25901 c 2.08024,2.5245 3.45555,3.25699 6.10217,3.25 5.55914,-0.0147 3.11778,0.67281 -4.41667,1.24372 -3.85,0.29172 -8.03765,0.2417 -9.30588,-0.11116 z m 35.574,0.29322 c -0.31087,-0.31087 0.61683,-2.37064 2.06155,-4.57727 l 2.62677,-4.01206 1.82544,2.32727 c 1.00398,1.28 2.43597,3.07283 3.18218,3.98407 1.17917,1.43993 1.07397,1.73265 -0.80365,2.23634 -2.78265,0.74647 -8.16227,0.77167 -8.89229,0.0417 z m -146.04225,-1.04225 c -0.33411,-0.33411 1.65912,-2.13277 4.42939,-3.99702 l 5.03686,-3.38956 2.46642,1.94009 c 1.35654,1.06705 4.06715,2.46837 6.02359,3.11406 2.60642,0.8602 3.19109,1.40587 2.18751,2.04162 -1.54226,0.977 -19.20262,1.23195 -20.14377,0.29081 z m 36.27413,-0.17854 c 0,-0.4323 1.88517,-2.23489 4.18927,-4.00576 l 4.18928,-3.21975 2.5969,2.48799 c 1.4283,1.36839 4.05249,2.77911 5.83154,3.13492 6.69546,1.33909 3.95022,2.3886 -6.24797,2.3886 -5.80746,0 -10.55902,-0.3537 -10.55902,-0.786 z m 36,0.29946 c 0,-0.2676 1.6875,-2.04831 3.75,-3.95713 l 3.75,-3.47059 2.80069,2.95713 c 1.54037,1.62642 3.79037,2.96402 5,2.97244 1.20962,0.008 2.87431,0.45153 3.69931,0.98469 1.02253,0.66081 -1.76272,0.97425 -8.75,0.98469 -5.6375,0.008 -10.25,-0.20363 -10.25,-0.47123 z m -275.75,-1.18966 c -1.2375,-0.25459 -2.23578,-0.7691 -2.2184,-1.14335 0.0502,-1.07982 4.78179,-6.18045 5.73334,-6.18045 1.10456,0 6.72872,5.84159 6.16216,6.40038 -0.77497,0.76435 -7.38462,1.39507 -9.6771,0.92342 z m 30.75,-0.3238 c -4.20179,-0.51492 -4.67387,-0.71609 -2,-0.85232 4.12444,-0.21012 5.29143,-0.87072 6.88548,-3.89768 0.65169,-1.2375 1.75578,-2.25 2.45354,-2.25 1.30969,0 7.66098,6.05004 7.66098,7.29761 0,0.81395 -7.07495,0.67358 -15,-0.29761 z m 34,0.0835 -5.5,-0.59052 4.40291,-0.67183 c 3.09691,-0.47256 5.04931,-1.48249 6.58208,-3.40476 l 2.17916,-2.73293 4.62892,3.40828 c 2.54591,1.87455 4.64648,3.74578 4.66793,4.15828 0.0432,0.83014 -8.45546,0.7467 -16.961,-0.16652 z m 31.56777,0.0262 c -0.30265,-0.48969 0.95901,-1.17349 2.80369,-1.51956 1.84468,-0.34606 4.16049,-1.5204 5.14624,-2.60965 0.98575,-1.08929 2.43647,-1.98049 3.22381,-1.98049 1.2743,0 10.25849,5.84104 10.25849,6.66952 0,0.78939 -20.93636,0.24247 -21.43223,-0.55987 z m 39.18223,-1.72273 c 2.8875,-1.39699 5.25,-2.95556 5.25,-3.46348 0,-1.59342 2.77734,-1.01154 6.33147,1.32651 1.88116,1.2375 4.26364,2.78604 5.29441,3.44119 1.51058,0.96013 -0.45361,1.19552 -10.12588,1.21348 l -12,0.0223 5.25,-2.53999 z m 34.75,0.44984 c 2.2,-1.14114 4.7875,-2.766 5.75,-3.61079 1.57553,-1.38286 1.92573,-1.37696 3.51268,0.0592 0.96947,0.87736 3.78197,2.49032 6.25,3.58435 l 4.48732,1.98915 -12,0.0264 -12,0.0264 4,-2.0748 z m -342,0.26224 -3,-0.66431 3.31154,-3.35583 c 3.47671,-3.52321 4.5203,-3.32269 5.55224,1.06683 0.44564,1.89561 0.17553,2.81707 -0.95268,3.25 -0.86607,0.33234 -1.65037,0.55102 -1.74289,0.48595 -0.0925,-0.0651 -1.51821,-0.41726 -3.16821,-0.78264 z m 31.75327,0.10494 c -0.90486,-0.59368 -0.28733,-1.74788 2.25194,-4.20904 3.83111,-3.71326 5.16135,-3.36059 5.67691,1.50505 0.29482,2.78236 0.064,3.01893 -3.18212,3.26099 -1.925,0.14355 -4.06103,-0.1071 -4.74673,-0.557 z m 34.27557,-0.15732 c -0.67627,-1.09423 2.12253,-4.73193 4.74849,-6.17177 1.46801,-0.80492 2.01807,-0.40196 3.16063,2.31538 0.76082,1.80945 1.17196,3.63187 0.91365,4.04981 -0.67916,1.09892 -8.12494,0.93568 -8.82277,-0.19342 z m 34.63987,0.26395 c -1.57022,-0.62686 3.37687,-6.31062 5.4927,-6.31062 1.10124,0 4.33859,4.81308 4.33859,6.45034 0,0.69074 -8.03721,0.57652 -9.83129,-0.13972 z m 34.48396,0.009 c -0.85109,-0.85137 4.28515,-6.31962 5.93565,-6.31962 0.66777,0 2.1434,1.575 3.27918,3.5 l 2.06505,3.5 -5.29961,0 c -2.91478,0 -5.60591,-0.3063 -5.98027,-0.68067 z m -147.65267,-2.31962 c 1.28242,-2.39622 3.5511,-2.61219 4.39301,-0.41821 0.90667,2.36273 0.85096,2.41821 -2.42819,2.41821 -2.72531,0 -2.92591,-0.20419 -1.96482,-2 z m 688.43076,-34.85299 c -6.38248,-6.71414 -6.94857,-7.06932 -11.81719,-7.4145 l -5.11357,-0.36255 6.04179,-0.18498 c 5.90746,-0.18087 6.13031,-0.0905 10.02294,4.06502 7.04202,7.51758 8.7893,9.7293 8.17306,10.34554 -0.33188,0.33189 -3.62005,-2.56995 -7.30703,-6.44853 z m -724.43076,3.0376 c 0,-0.47671 3.7125,-4.13488 8.25,-8.12926 l 8.25,-7.26251 23.5,0.59633 c 12.925,0.32798 107.2,0.88628 209.5,1.24065 102.3,0.35438 216.6,0.99063 254,1.41389 47.63694,0.53911 22.6323,0.64517 -83.5,0.35419 -83.325,-0.22846 -207.93132,-0.41907 -276.90293,-0.42359 l -125.40294,-0.008 -5.59707,4.86459 c -5.79492,5.03634 -12.09706,8.86747 -12.09706,7.35371 z m 666,-11.18461 c 0,-0.55 0.9,-1 2,-1 1.1,0 2,0.45 2,1 0,0.55 -0.9,1 -2,1 -1.1,0 -2,-0.45 -2,-1 z m 11.5,0 c 0.33992,-0.55 1.68992,-1 3,-1 1.31008,0 2.66008,0.45 3,1 0.36852,0.59628 -0.84262,1 -3,1 -2.15738,0 -3.36852,-0.40372 -3,-1 z m 8.88697,0.2797 c 0.71783,-0.71783 7.73764,-0.45983 8.5297,0.31349 0.22916,0.22375 -1.75834,0.40681 -4.41667,0.40681 -2.65833,0 -4.5092,-0.32414 -4.11303,-0.7203 z m 12.87678,0.003 c 1.52006,-0.22986 3.77006,-0.22371 5,0.0136 1.22994,0.23736 -0.0137,0.42542 -2.76375,0.41792 -2.75,-0.008 -3.75631,-0.20172 -2.23625,-0.43157 z M 427.17857,458.5136 c 1.2375,-0.23836 3.2625,-0.23836 4.5,0 1.2375,0.23835 0.225,0.43337 -2.25,0.43337 -2.475,0 -3.4875,-0.19502 -2.25,-0.43337 z m 10,0 c 1.2375,-0.23836 3.2625,-0.23836 4.5,0 1.2375,0.23835 0.225,0.43337 -2.25,0.43337 -2.475,0 -3.4875,-0.19502 -2.25,-0.43337 z m 55.98097,0.0498 c 0.67703,-0.27392 2.02703,-0.29059 3,-0.0371 0.97297,0.25354 0.41903,0.47766 -1.23097,0.49804 -1.65,0.0204 -2.44606,-0.18706 -1.76903,-0.46099 z"
         id="path3024" />
    </g>
  </g>
</svg>
