<?xml version="1.0" encoding="UTF-8" standalone="no"?>
<!-- Created with Inkscape (http://www.inkscape.org/) -->
<svg
   xmlns:svg="http://www.w3.org/2000/svg"
   xmlns="http://www.w3.org/2000/svg"
   xmlns:xlink="http://www.w3.org/1999/xlink"
   version="1.0"
   width="400"
   height="360"
   id="svg2">
  <defs
     id="defs4">
    <linearGradient
       id="linearGradient2996">
      <stop
         style="stop-color:black;stop-opacity:1"
         offset="0"
         id="stop2998" />
      <stop
         style="stop-color:black;stop-opacity:0"
         offset="1"
         id="stop3000" />
    </linearGradient>
    <linearGradient
       id="linearGradient2984">
      <stop
         style="stop-color:white;stop-opacity:1"
         offset="0"
         id="stop2986" />
      <stop
         style="stop-color:#b6b6b6;stop-opacity:1"
         offset="1"
         id="stop2988" />
    </linearGradient>
    <linearGradient
       id="linearGradient2855">
      <stop
         style="stop-color:#919191;stop-opacity:1"
         offset="0"
         id="stop2857" />
      <stop
         style="stop-color:#b3b3b3;stop-opacity:1"
         offset="1"
         id="stop2859" />
    </linearGradient>
    <linearGradient
       id="linearGradient2847">
      <stop
         style="stop-color:#444;stop-opacity:1"
         offset="0"
         id="stop2849" />
      <stop
         style="stop-color:#444;stop-opacity:0"
         offset="1"
         id="stop2851" />
    </linearGradient>
    <linearGradient
       x1="92.604424"
       y1="304.50995"
       x2="263.82959"
       y2="26.290426"
       id="linearGradient3199"
       xlink:href="#linearGradient2889"
       gradientUnits="userSpaceOnUse" />
    <linearGradient
       id="linearGradient2889">
      <stop
         style="stop-color:#a0a3e1;stop-opacity:1"
         offset="0"
         id="stop2891" />
      <stop
         style="stop-color:#dedcfa;stop-opacity:1"
         offset="1"
         id="stop2893" />
    </linearGradient>
    <linearGradient
       x1="273.75882"
       y1="133.89272"
       x2="259.68753"
       y2="119.82143"
       id="linearGradient2915"
       xlink:href="#linearGradient2855"
       gradientUnits="userSpaceOnUse" />
    <linearGradient
       x1="273.75882"
       y1="133.89272"
       x2="259.68753"
       y2="119.82143"
       id="linearGradient2917"
       xlink:href="#linearGradient2847"
       gradientUnits="userSpaceOnUse" />
    <linearGradient
       x1="273.75882"
       y1="133.89272"
       x2="259.68753"
       y2="119.82143"
       id="linearGradient2919"
       xlink:href="#linearGradient2855"
       gradientUnits="userSpaceOnUse" />
    <linearGradient
       x1="273.75882"
       y1="133.89272"
       x2="259.68753"
       y2="119.82143"
       id="linearGradient2921"
       xlink:href="#linearGradient2847"
       gradientUnits="userSpaceOnUse" />
    <linearGradient
       x1="273.75882"
       y1="133.89272"
       x2="259.68753"
       y2="119.82143"
       id="linearGradient2976"
       xlink:href="#linearGradient2855"
       gradientUnits="userSpaceOnUse" />
    <linearGradient
       x1="273.75882"
       y1="133.89272"
       x2="259.68753"
       y2="119.82143"
       id="linearGradient2978"
       xlink:href="#linearGradient2847"
       gradientUnits="userSpaceOnUse" />
    <linearGradient
       x1="273.75882"
       y1="133.89272"
       x2="259.68753"
       y2="119.82143"
       id="linearGradient2980"
       xlink:href="#linearGradient2855"
       gradientUnits="userSpaceOnUse" />
    <linearGradient
       x1="273.75882"
       y1="133.89272"
       x2="259.68753"
       y2="119.82143"
       id="linearGradient2982"
       xlink:href="#linearGradient2847"
       gradientUnits="userSpaceOnUse" />
    <linearGradient
       x1="181.15857"
       y1="173.11131"
       x2="213.90044"
       y2="243.11131"
       id="linearGradient2990"
       xlink:href="#linearGradient2984"
       gradientUnits="userSpaceOnUse" />
    <linearGradient
       x1="132.04787"
       y1="112.67857"
       x2="120.61929"
       y2="61.964287"
       id="linearGradient3002"
       xlink:href="#linearGradient2996"
       gradientUnits="userSpaceOnUse" />
  </defs>
  <g
     id="layer1">
    <path
       d="M 374 169 A 190 152 0 1 1  -6,169 A 190 152 0 1 1  374 169 z"
       transform="matrix(0.851641,-0.524127,0.524127,0.851641,-45.27941,132.512)"
       style="fill:url(#linearGradient3199);fill-opacity:1;stroke:none;stroke-width:3.125;stroke-linecap:butt;stroke-linejoin:round;stroke-miterlimit:4;stroke-dasharray:none;stroke-dashoffset:0;stroke-opacity:1"
       id="path2869" />
    <path
       d="M 236.7549,140.32632 C 236.7549,140.32632 117.62498,194.25187 101.7549,203.18347 C 22.624744,247.7175 122.73745,380.51641 190.32632,286.7549 C 190.32632,286.7549 311.11603,233.04511 324.61204,223.89775 C 405.62375,168.98942 301.38217,41.994246 236.7549,140.32632 z "
       style="opacity:0.3;fill:black;fill-opacity:1;fill-rule:evenodd;stroke:black;stroke-width:5;stroke-linecap:butt;stroke-linejoin:round;stroke-miterlimit:4;stroke-dasharray:none;stroke-opacity:1"
       id="path3012" />
    <path
       d="M 178.57143,150 C 141.5428,119.03814 111.92252,94.734869 129.64286,53.928571"
       style="fill:none;fill-opacity:0.75;fill-rule:evenodd;stroke:url(#linearGradient3002);stroke-width:7.5;stroke-linecap:butt;stroke-linejoin:miter;stroke-miterlimit:4;stroke-dasharray:none;stroke-opacity:1"
       id="path2994" />
    <path
       d="M 187.88838 151.90857 A 16.162441 16.162441 0 1 1  155.5635,151.90857 A 16.162441 16.162441 0 1 1  187.88838 151.90857 z"
       style="opacity:1;fill:white;fill-opacity:1;fill-rule:nonzero;stroke:black;stroke-width:3.75;stroke-linecap:round;stroke-linejoin:round;stroke-miterlimit:4;stroke-dasharray:none;stroke-dashoffset:12.5;stroke-opacity:1"
       id="path2992" />
    <path
       d="M 220.71429,124.28571 C 220.71429,124.28571 101.58437,178.21126 85.714286,187.14286 C 6.5841336,231.67689 106.69684,364.4758 174.28571,270.71429 C 174.28571,270.71429 295.07542,217.0045 308.57143,207.85714 C 389.58314,152.94881 285.34156,25.953636 220.71429,124.28571 z "
       style="fill:url(#linearGradient2990);fill-opacity:1;fill-rule:evenodd;stroke:black;stroke-width:5;stroke-linecap:butt;stroke-linejoin:round;stroke-miterlimit:4;stroke-dasharray:none;stroke-opacity:1"
       id="path1957" />
    <g
       transform="translate(-5.714286,7.142857)"
       id="g3004">
      <g
         transform="translate(77.5,-48.57143)"
         id="g2911">
        <path
           d="M 276.07143 127.5 A 9.8214283 9.8214283 0 1 1  256.42857,127.5 A 9.8214283 9.8214283 0 1 1  276.07143 127.5 z"
           transform="matrix(-1.488547,0,0,-1.488547,584.6461,364.5884)"
           style="opacity:0.5;fill:url(#linearGradient2915);fill-opacity:1;fill-rule:nonzero;stroke:url(#linearGradient2917);stroke-width:1.25961804;stroke-linecap:round;stroke-linejoin:round;stroke-miterlimit:4;stroke-dasharray:none;stroke-dashoffset:12.5;stroke-opacity:1"
           id="path2901" />
        <path
           d="M 276.07143 127.5 A 9.8214283 9.8214283 0 1 1  256.42857,127.5 A 9.8214283 9.8214283 0 1 1  276.07143 127.5 z"
           transform="translate(-77.92967,47.2986)"
           style="opacity:1;fill:url(#linearGradient2919);fill-opacity:1;fill-rule:nonzero;stroke:url(#linearGradient2921);stroke-width:1.875;stroke-linecap:round;stroke-linejoin:round;stroke-miterlimit:4;stroke-dasharray:none;stroke-dashoffset:12.5;stroke-opacity:1"
           id="path2845" />
      </g>
      <use
         transform="translate(36.07143,8.571429)"
         id="use2923"
         x="0"
         y="0"
         width="400"
         height="360"
         xlink:href="#g2911" />
      <use
         transform="translate(19.64286,41.42857)"
         id="use2925"
         x="0"
         y="0"
         width="400"
         height="360"
         xlink:href="#g2911" />
      <use
         transform="translate(-15.71429,32.5)"
         id="use2927"
         x="0"
         y="0"
         width="400"
         height="360"
         xlink:href="#g2911" />
    </g>
    <g
       transform="matrix(0.879121,-0.324781,0.400862,0.906383,-77.67881,62.61362)"
       id="g2959">
      <path
         d="M 276.07143 127.5 A 9.8214283 9.8214283 0 1 1  256.42857,127.5 A 9.8214283 9.8214283 0 1 1  276.07143 127.5 z"
         transform="matrix(-3.663259,0,0,-3.663259,1093.016,705.1493)"
         style="opacity:0.5;fill:url(#linearGradient2976);fill-opacity:1;fill-rule:nonzero;stroke:url(#linearGradient2978);stroke-width:1.30826628;stroke-linecap:round;stroke-linejoin:round;stroke-miterlimit:4;stroke-dasharray:none;stroke-dashoffset:12.5;stroke-opacity:1"
         id="path2929" />
      <path
         d="M 276.07143 127.5 A 9.8214283 9.8214283 0 1 1  256.42857,127.5 A 9.8214283 9.8214283 0 1 1  276.07143 127.5 z"
         transform="matrix(2.878007,0,0,2.878007,-648.5961,-128.8621)"
         style="opacity:1;fill:url(#linearGradient2980);fill-opacity:1;fill-rule:nonzero;stroke:url(#linearGradient2982);stroke-width:1.2166661;stroke-linecap:round;stroke-linejoin:round;stroke-miterlimit:4;stroke-dasharray:none;stroke-dashoffset:12.5;stroke-opacity:1"
         id="path2937" />
      <g
         transform="translate(0.946341,0.592528)"
         id="g2953">
        <g
           id="g2947">
          <path
             d="M 116.72691,214.7409 L 109.50088,227.17035 C 109.50088,227.17035 113.11391,225.64808 116.72694,225.64808 C 120.33995,225.64808 123.95297,227.17035 123.95297,227.17035 L 116.72691,214.7409 z "
             style="fill:white;fill-opacity:1;fill-rule:evenodd;stroke:black;stroke-width:1.03862154px;stroke-linecap:round;stroke-linejoin:round;stroke-opacity:0.74074073"
             id="path2943" />
          <use
             transform="matrix(1,0,0,-1,0,474.9825)"
             id="use2945"
             x="0"
             y="0"
             width="400"
             height="360"
             xlink:href="#path2943" />
        </g>
        <use
           transform="matrix(0,1,-1,0,354.2182,120.7643)"
           id="use2951"
           x="0"
           y="0"
           width="400"
           height="360"
           xlink:href="#g2947" />
      </g>
    </g>
  </g>
</svg>
