<?xml version="1.0"?><svg width="647.04352" height="818.78308" xmlns="http://www.w3.org/2000/svg" xmlns:xlink="http://www.w3.org/1999/xlink">
 <defs>
  <linearGradient id="linearGradient7319">
   <stop stop-color="black" id="stop7321" offset="0"/>
   <stop stop-color="black" stop-opacity="0.498039" offset="0.189655" id="stop7337"/>
   <stop stop-color="black" stop-opacity="0" id="stop7323" offset="1"/>
  </linearGradient>
  <linearGradient y2="-Infinity" x2="1.79661" y1="-Infinity" x1="0.735593" id="linearGradient7345" xlink:href="#linearGradient7319"/>
 </defs>
 <metadata id="metadata6">image/svg+xmlprackaZS a MS Machovo nam.czprackawasher</metadata>
 <g>
  <title>Layer 1</title>
  <g externalResourcesRequired="false" id="g7361">
   <path fill="#7f0000" fill-rule="evenodd" stroke="black" stroke-width="1px" d="m102.257813,99.711586l542.857117,-18.571442l1.428589,689.999992l-544.285706,47.142883l0,-718.571434z" id="path1965"/>
   <path fill="#7f0000" fill-rule="evenodd" stroke="black" stroke-width="1px" d="m102.257813,98.997292l138.57135,-3.571426l77.8573,-2.142853l148.571411,-7.142868l15,0l163.214233,-5l-0.357178,107.857155l-115,10.714279l-90,5.714294l-154.285767,5.714279l-183.57135,5l0,-117.14286z" id="path1967"/>
   <path fill="#040005" fill-rule="evenodd" stroke="black" stroke-width="1px" d="m161.543518,142.568726l-13.571411,-0.714294l5.714355,17.142868l17.857056,15.714279l23.571411,12.142853l298.571533,1.428589l-3.571533,-4.285721l-194.285767,-3.571426l-43.571289,-4.285736l-32.8573,-11.428558l-44.285645,-15l-13.571411,-7.142853z" id="path1969"/>
   <path fill="#f9f4fb" fill-rule="evenodd" stroke="black" stroke-width="1px" d="m147.614929,142.211594l-7.142822,4.642838l-0.714294,16.071442l6.42865,10.714279l18.571411,20.714294l7.857056,2.499985l152.5,-4.285706l54.642944,-4.642853l-47.142944,-0.357147l-70.357056,-1.428589l-67.142944,1.071457l-23.571411,-12.142868l-18.214355,-17.142853l-5.714233,-15.714279z" id="path1971"/>
   <path fill="#292929" fill-rule="nonzero" stroke-width="0.7" stroke-miterlimit="4" id="path1973" d="m193.329224,129.533005a9.46429,7.67857 0 1 1 -18.928528,0a9.46429,7.67857 0 1 1 18.928528,0z"/>
   <path fill="#f8f7fd" fill-rule="evenodd" stroke="black" stroke-width="1px" d="m315.472107,152.925873l0,-9.642853l18.571411,-7.857147l28.571411,-6.785721l25,-0.714287l46.428589,0.357155l18.928589,3.214279l12.857056,5l-7.1427,10.714294l-15,11.428558l-23.571533,2.142868l-30.714355,1.071411l-39.285645,-0.357132l-21.428467,0.357132l-13.214355,-8.928558z" id="path1975"/>
   <path fill="#030000" fill-rule="evenodd" stroke="black" stroke-width="1px" d="m326.007874,150.425873l17.678589,0l-1.071533,-4.642853l-17.857056,0.357117l1.428589,5l-0.178589,-0.714264z" id="path1977"/>
   <path fill="#030000" fill-rule="nonzero" stroke-width="0.7" stroke-miterlimit="4" id="path1979" d="m393.686401,147.211578a10.08929,7.67857 0 1 1 -20.178589,0a10.08929,7.67857 0 1 1 20.178589,0z"/>
   <path fill="#030000" fill-rule="nonzero" stroke-width="0.7" stroke-miterlimit="4" d="m440.829224,145.78302a10.08929,7.67857 0 1 1 -20.178589,0a10.08929,7.67857 0 1 1 20.178589,0z" id="path1981"/>
   <path fill="#030000" fill-rule="nonzero" stroke-width="0.7" stroke-miterlimit="4" id="path1983" d="m417.436401,146.497299a10.08929,7.67857 0 1 1 -20.178589,0a10.08929,7.67857 0 1 1 20.178589,0z"/>
   <path fill="#55595a" fill-rule="nonzero" stroke="#7f6f6f" stroke-width="2.3" stroke-miterlimit="4" id="path1985" d="m529.757813,139.533035a18.92857,19.10714 0 1 1 -37.857178,0a18.92857,19.10714 0 1 1 37.857178,0z"/>
   <path fill="#55595a" fill-rule="nonzero" stroke="#888282" stroke-width="2.3" stroke-miterlimit="4" id="path1987" d="m608.686401,138.997299a22.32143,25.35714 0 1 1 -44.642822,0a22.32143,25.35714 0 1 1 44.642822,0z"/>
   <path fill="#bbc387" fill-rule="evenodd" stroke="black" stroke-width="1px" d="m562.614929,123.283012l7.5,-7.857147l6.785645,-3.928574l-3.928467,-7.5l-7.5,1.071426l-8.214233,8.571426l-3.571411,6.428574l8.928467,3.214294z" id="path3759"/>
   <path fill="#fefeff" fill-rule="evenodd" stroke="black" stroke-width="1px" d="m509.579163,106.854439l0.3573,8.035706l9.285645,0.357147l6.607056,2.5l5.892944,5.892853l2.678467,4.285721l0.892944,7.678566l0.892944,5.535706l-0.3573,4.642883l-3.3927,5.535706l-6.25,7.678574l-6.6073,2.142838l-8.3927,0.357162l-0.178589,7.678574l10.357056,0l5.714233,-2.678574l7.321411,-5.357162l5.535889,-8.392853l3.214111,-8.571411l0.178589,-12.5l-1.428589,-6.785728l-5.357056,-6.071426l-7.321411,-7.857132l-9.821533,-3.75l-9.821411,-0.357147z" id="path3761"/>
   <path fill="#fefeff" fill-rule="evenodd" stroke="black" stroke-width="1px" d="m584.757874,107.747292l-0.714355,-11.071426l12.857056,0.178558l8.75,2.142868l8.571533,5.357132l6.25,5.357162l4.821411,6.25l3.035645,6.964279l1.6073,8.214272l1.071411,6.071457l-0.3573,5.892838l-0.714111,5.535721l-1.25,9.464279l-5,8.75l-7.5,8.214294l-10.892944,5.535706l-10.178589,2.5l-6.428467,0.357147l-0.535889,-11.071442l14.642944,-3.571411l11.964355,-12.5l2.1427,-19.285706l-7.1427,-17.857155l-10.535767,-8.928574l-7.142944,-2.5l-7.321289,0z" id="path3763"/>
   <g externalResourcesRequired="false" id="g7339" transform="matrix(0.859425 0 0 0.858362 884.007 12.8734)">
    <g transform="matrix(1 -0.0894569 0 1 -417.143 101.944)" id="g5539">
     <path fill="#030207" fill-rule="nonzero" stroke-width="5.6" stroke-miterlimit="4" d="m47.752094,333.829712a223.571442,200.714279 0 1 1 -447.142811,0a223.571442,200.714279 0 1 1 447.142811,0z" id="path4652"/>
     <path fill="#7a7883" fill-rule="nonzero" stroke="#f9f6f6" stroke-width="5.6" stroke-miterlimit="4" id="path3765" d="m34.894928,331.686829a210.714279,187.142853 0 1 1 -421.428589,0a210.714279,187.142853 0 1 1 421.428589,0z"/>
    </g>
    <path fill="#007fff" fill-rule="nonzero" stroke="#f9f6f6" stroke-width="5.6" stroke-miterlimit="4" id="path5547" d="m-434.376831,432.161438a157.871353,136.701508 0 1 1 -315.742676,27.53833a157.871353,136.701508 0 1 1 315.742676,-27.53833z"/>
   </g>
   <path fill="#7f0000" fill-rule="evenodd" stroke="black" stroke-width="1px" d="m102.020325,816.703247l-96.469543,-121.72345l-3.535522,-647.002678l99.5,51.012695l0.505066,717.713432z" id="path7347"/>
   <path fill="#b7b9b8" fill-rule="evenodd" stroke="black" stroke-width="1px" d="m101.900635,98.997292l1.071472,-33.214279l-88.571472,-45l-12.857117,-6.428566l0.714294,32.857132l99.642822,51.785713z" id="path7349"/>
   <path fill="#f8f9fb" fill-rule="evenodd" stroke="black" stroke-width="1px" d="m103.030518,66.159859l517.198059,-17.172592l18.182739,0l7.071045,6.060921l1.010254,11.616753l0,13.637054l-177.786865,5.555847l-132.330078,6.060913l-136.370605,3.030457l-97.984741,3.535538l1.010193,-32.32489z" id="path7351"/>
   <path fill="#7f0000" fill-rule="evenodd" stroke="black" stroke-width="1px" d="m104.040649,66.159859l-103.540649,-52.527916l481.337708,-13.131992l156.573608,48.487316l-103.540649,3.53553l-202.535522,6.566002l-228.294495,7.07106z" id="path7353"/>
   <path fill="#fafcfd" fill-rule="evenodd" stroke="black" stroke-width="0.805569px" d="m50.501465,113.904152l1.853577,601.618919l-6.487366,-21.435364l-3.707092,-593.044777l8.340881,12.861221z" id="path7355"/>
   <path fill="#fafcfd" fill-rule="evenodd" stroke="black" stroke-width="0.801054px" id="path7357" d="m24.788635,89.466774l1.85437,594.630028l-6.490234,-21.18634l-3.70874,-586.155495l8.344604,12.711807z"/>
   <path fill="#040005" fill-rule="evenodd" stroke="black" stroke-width="0.618045px" id="path7359" d="m75.382385,80.616844l0.637817,-21.311722l-52.727905,-28.87394l-7.654053,-4.124855l0.425232,21.082565l59.318909,33.227951z"/>
  </g>
 </g>
</svg>