<?xml version="1.0" encoding="UTF-8" standalone="no"?>
<!-- Created with Inkscape (http://www.inkscape.org/) -->

<svg
   xmlns:dc="http://purl.org/dc/elements/1.1/"
   xmlns:cc="http://creativecommons.org/ns#"
   xmlns:rdf="http://www.w3.org/1999/02/22-rdf-syntax-ns#"
   xmlns:svg="http://www.w3.org/2000/svg"
   xmlns="http://www.w3.org/2000/svg"
   xmlns:sodipodi="http://sodipodi.sourceforge.net/DTD/sodipodi-0.dtd"
   xmlns:inkscape="http://www.inkscape.org/namespaces/inkscape"
   width="175"
   height="175"
   id="svg4571"
   version="1.1"
   inkscape:version="0.48.3.1 r9886"
   sodipodi:docname="New document 17">
  <defs
     id="defs4573">
    <inkscape:perspective
       sodipodi:type="inkscape:persp3d"
       inkscape:vp_x="0 : 87.5 : 1"
       inkscape:vp_y="0 : 1000 : 0"
       inkscape:vp_z="175 : 87.5 : 1"
       inkscape:persp3d-origin="87.5 : 58.333333 : 1"
       id="perspective6763" />
  </defs>
  <sodipodi:namedview
     id="base"
     pagecolor="#ffffff"
     bordercolor="#666666"
     borderopacity="1.0"
     inkscape:pageopacity="0.0"
     inkscape:pageshadow="2"
     inkscape:zoom="2.8"
     inkscape:cx="32.675167"
     inkscape:cy="71.695628"
     inkscape:document-units="px"
     inkscape:current-layer="layer1"
     showgrid="false"
     inkscape:window-width="1366"
     inkscape:window-height="744"
     inkscape:window-x="0"
     inkscape:window-y="24"
     inkscape:window-maximized="1" />
  <metadata
     id="metadata4576">
    <rdf:RDF>
      <cc:Work
         rdf:about="">
        <dc:format>image/svg+xml</dc:format>
        <dc:type
           rdf:resource="http://purl.org/dc/dcmitype/StillImage" />
        <dc:title></dc:title>
      </cc:Work>
    </rdf:RDF>
  </metadata>
  <g
     inkscape:groupmode="layer"
     id="layer5"
     inkscape:label="ovals" />
  <g
     inkscape:label="Layer 1"
     inkscape:groupmode="layer"
     id="layer1"
     transform="translate(0,-877.36218)"
     style="display:inline">
    <path
       style="fill:#aa4400;fill-opacity:1;fill-rule:evenodd;stroke:#000000;stroke-width:0.54003519px;stroke-linecap:butt;stroke-linejoin:miter;stroke-opacity:1"
       d="M 8.34375 75.90625 C 5.5823263 75.90625 3.34375 78.182739 3.34375 80.96875 C 3.34375 83.754761 5.5823263 86 8.34375 86 C 8.516339 86 8.6756646 85.985972 8.84375 85.96875 L 113.5625 85.96875 L 113.5625 75.96875 L 9 75.96875 C 8.7813477 75.939279 8.5703952 75.90625 8.34375 75.90625 z "
       transform="translate(0,877.36218)"
       id="rect6779" />
    <g
       id="g6847">
      <rect
         y="922.38788"
         x="112.96376"
         height="68.52005"
         width="38.520054"
         id="rect6781"
         style="fill:#803300;fill-rule:evenodd;stroke:#000000;stroke-width:1.05137444px;stroke-linecap:butt;stroke-linejoin:miter;stroke-opacity:1" />
      <path
         inkscape:connector-curvature="0"
         id="path6794"
         d="m 111.00504,922.62487 0,0.1875 c -3.16933,0.31272 -5.65625,2.93196 -5.65625,6.09375 0,3.16179 2.48692,5.74978 5.65625,6.0625 l 0,0.0937 42.6875,0 0,-0.21875 c 3.0479,-0.42156 5.40625,-2.95346 5.40625,-6.03125 0,-3.07779 -2.35835,-5.64094 -5.40625,-6.0625 l 0,-0.125 -42.6875,0 z"
         style="fill:#552200;fill-opacity:1;stroke:#000000;stroke-width:1.10823786;stroke-linecap:butt;stroke-linejoin:round;stroke-miterlimit:4;stroke-opacity:1;stroke-dasharray:none;stroke-dashoffset:0;display:inline" />
      <path
         id="path6794-7"
         d="m 111.00504,980.48357 0,0.1875 c -3.16933,0.31272 -5.65625,2.93196 -5.65625,6.09375 0,3.16179 2.48692,5.74978 5.65625,6.0625 l 0,0.0937 42.6875,0 0,-0.21875 c 3.0479,-0.42156 5.40625,-2.95346 5.40625,-6.03125 0,-3.07779 -2.35835,-5.64094 -5.40625,-6.0625 l 0,-0.125 -42.6875,0 z"
         style="fill:#552200;fill-opacity:1;stroke:#000000;stroke-width:1.10823786;stroke-linecap:butt;stroke-linejoin:round;stroke-miterlimit:4;stroke-opacity:1;stroke-dasharray:none;stroke-dashoffset:0;display:inline"
         inkscape:connector-curvature="0" />
    </g>
  </g>
</svg>
