<?xml version="1.0" encoding="UTF-8" standalone="no"?>
<!-- Created with Inkscape (http://www.inkscape.org/) -->

<svg
   xmlns:dc="http://purl.org/dc/elements/1.1/"
   xmlns:cc="http://creativecommons.org/ns#"
   xmlns:rdf="http://www.w3.org/1999/02/22-rdf-syntax-ns#"
   xmlns:svg="http://www.w3.org/2000/svg"
   xmlns="http://www.w3.org/2000/svg"
   xmlns:sodipodi="http://sodipodi.sourceforge.net/DTD/sodipodi-0.dtd"
   xmlns:inkscape="http://www.inkscape.org/namespaces/inkscape"
   width="600"
   height="400"
   id="svg9438"
   version="1.1"
   inkscape:version="0.48.3.1 r9886"
   sodipodi:docname="evcharger2.svg">
  <title
     id="title3470">eco car</title>
  <defs
     id="defs9440" />
  <sodipodi:namedview
     id="base"
     pagecolor="#ffffff"
     bordercolor="#666666"
     borderopacity="1.0"
     inkscape:pageopacity="0.0"
     inkscape:pageshadow="2"
     inkscape:zoom="0.77472527"
     inkscape:cx="91.531914"
     inkscape:cy="188.36879"
     inkscape:current-layer="layer1"
     inkscape:document-units="px"
     showgrid="false"
     inkscape:window-width="1366"
     inkscape:window-height="744"
     inkscape:window-x="0"
     inkscape:window-y="24"
     inkscape:window-maximized="1" />
  <metadata
     id="metadata9443">
    <rdf:RDF>
      <cc:Work
         rdf:about="">
        <dc:format>image/svg+xml</dc:format>
        <dc:type
           rdf:resource="http://purl.org/dc/dcmitype/StillImage" />
        <dc:title>eco car</dc:title>
        <cc:license
           rdf:resource="http://creativecommons.org/licenses/publicdomain/" />
        <dc:subject>
          <rdf:Bag>
            <rdf:li>eco car</rdf:li>
            <rdf:li>fuel efficient car</rdf:li>
            <rdf:li>least polluting car</rdf:li>
            <rdf:li>non polluting car</rdf:li>
            <rdf:li>electric car</rdf:li>
            <rdf:li>green car</rdf:li>
          </rdf:Bag>
        </dc:subject>
        <dc:date>2011-05-17</dc:date>
        <dc:creator>
          <cc:Agent>
            <dc:title>netalloy.com</dc:title>
          </cc:Agent>
        </dc:creator>
        <dc:language>en</dc:language>
      </cc:Work>
      <cc:License
         rdf:about="http://creativecommons.org/licenses/publicdomain/">
        <cc:permits
           rdf:resource="http://creativecommons.org/ns#Reproduction" />
        <cc:permits
           rdf:resource="http://creativecommons.org/ns#Distribution" />
        <cc:permits
           rdf:resource="http://creativecommons.org/ns#DerivativeWorks" />
      </cc:License>
    </rdf:RDF>
  </metadata>
  <g
     id="layer1"
     inkscape:label="Layer 1"
     inkscape:groupmode="layer"
     transform="translate(0,-80)">
    <g
       id="g2995"
       transform="matrix(1.1084323,0,0,1.627899,-27.779078,-48.668693)">
      <path
         sodipodi:nodetypes="ccsssccsssccccc"
         inkscape:connector-curvature="0"
         id="path9337"
         d="m 135.98602,285.23996 48.88887,1.48646 c -0.0254,-0.46463 -0.0514,-0.9268 -0.0514,-1.39526 0,-19.67744 21.62007,-35.62962 48.29539,-35.62962 26.67533,0 48.2949,15.95218 48.2949,35.62962 0,0.87377 -0.0359,1.73534 -0.12345,2.59312 l 142.33614,0.72155 c -0.1279,-1.12743 -0.21317,-2.25483 -0.21317,-3.40587 0,-22.24506 23.9781,-40.28834 53.54832,-40.28834 29.57021,0 53.54831,18.04328 53.54831,40.28834 0,1.59735 -0.13836,3.16488 -0.37834,4.7134 l 27.47541,-1.70708 c 11.66498,-1.28031 14.81303,-68.74332 -19.1097,-81.75669 -54.44687,-106.17001 -252.33746,-80.62277 -312.68343,-0.25417 -79.96374,3.95244 -90.55341,29.20286 -89.82785,79.00454 z"
         style="fill:#009100;stroke:#000000;stroke-width:0;stroke-linecap:butt;stroke-linejoin:miter;stroke-miterlimit:4;stroke-opacity:1;stroke-dasharray:none" />
      <path
         sodipodi:type="arc"
         style="fill:#009100;fill-opacity:1;stroke:#1f45ba;stroke-width:0;stroke-linecap:square;stroke-linejoin:bevel;stroke-miterlimit:4;stroke-opacity:1;stroke-dasharray:none;stroke-dashoffset:0"
         id="path9343"
         sodipodi:cx="-74.751289"
         sodipodi:cy="561.42804"
         sodipodi:rx="70.710678"
         sodipodi:ry="60.609154"
         d="m -4.0406113,561.42804 c 0,33.47351 -31.6582487,60.60915 -70.7106777,60.60915 -39.052431,0 -70.710681,-27.13564 -70.710681,-60.60915 0,-33.47351 31.65825,-60.60915 70.710681,-60.60915 39.052429,0 70.7106777,27.13564 70.7106777,60.60915 z"
         transform="matrix(0.60796793,0,0,0.61066113,279.33289,-51.689633)" />
      <path
         transform="matrix(0.62975343,0,0,0.66981103,524.19537,-88.340029)"
         d="m -4.0406113,561.42804 c 0,33.47351 -31.6582487,60.60915 -70.7106777,60.60915 -39.052431,0 -70.710681,-27.13564 -70.710681,-60.60915 0,-33.47351 31.65825,-60.60915 70.710681,-60.60915 39.052429,0 70.7106777,27.13564 70.7106777,60.60915 z"
         sodipodi:ry="60.609154"
         sodipodi:rx="70.710678"
         sodipodi:cy="561.42804"
         sodipodi:cx="-74.751289"
         id="path9372"
         style="fill:#009100;fill-opacity:1;stroke:#1f45ba;stroke-width:0;stroke-linecap:square;stroke-linejoin:bevel;stroke-miterlimit:4;stroke-opacity:1;stroke-dasharray:none;stroke-dashoffset:0"
         sodipodi:type="arc" />
      <path
         sodipodi:nodetypes="cccc"
         inkscape:connector-curvature="0"
         id="path9374"
         d="m 247.34108,210.47065 123.31577,-2.16327 1.11383,-57.702 c -60.57625,0 -99.75283,22.55521 -124.4296,59.86527 z"
         style="fill:#ccff42;stroke:#000000;stroke-width:0;stroke-linecap:butt;stroke-linejoin:miter;stroke-miterlimit:4;stroke-opacity:1;stroke-dasharray:none" />
      <path
         sodipodi:nodetypes="ccsc"
         inkscape:connector-curvature="0"
         id="path9376"
         d="m 385.80068,207.22574 -1.04945,-58.07357 c 88.82206,-9.51768 123.70332,60.13357 111.38466,60.23685 -159.2219,1.33003 -110.33521,-2.16328 -110.33521,-2.16328 z"
         style="fill:#ccff42;stroke:#000000;stroke-width:0;stroke-linecap:butt;stroke-linejoin:miter;stroke-miterlimit:4;stroke-opacity:1;stroke-dasharray:none" />
      <path
         sodipodi:nodetypes="csccccccsc"
         inkscape:connector-curvature="0"
         id="path9378"
         d="m 176.50822,229.02849 c 0,0 -31.34759,-28.5192 -49.37304,-32.24457 -16.05549,-3.31812 -48.197064,9.67327 -48.197064,9.67327 L 76.586897,188.723 44.84701,183.8859 l 0,37.08168 27.037512,8.06091 5.877782,-14.50946 c 0,0 30.372046,-13.03084 45.846336,-11.28564 18.65138,2.10262 52.89958,25.7951 52.89958,25.7951 z"
         style="fill:#009100;stroke:#000000;stroke-width:0;stroke-linecap:butt;stroke-linejoin:miter;stroke-miterlimit:4;stroke-opacity:1;stroke-dasharray:none" />
      <path
         inkscape:connector-curvature="0"
         id="path9382"
         d="M 39.604631,209.61551 z"
         style="fill:none;stroke:#000000;stroke-width:0;stroke-linecap:butt;stroke-linejoin:miter;stroke-miterlimit:4;stroke-opacity:1;stroke-dasharray:none" />
      <path
         inkscape:connector-curvature="0"
         id="path9384"
         d="m 45.72369,208.08548 -27.615859,0 1.315034,6.11916 24.985796,1.53002 z"
         style="fill:#009100;stroke:#000000;stroke-width:0;stroke-linecap:butt;stroke-linejoin:miter;stroke-miterlimit:4;stroke-opacity:1;stroke-dasharray:none" />
      <path
         style="fill:#009100;stroke:#000000;stroke-width:0;stroke-linecap:butt;stroke-linejoin:miter;stroke-miterlimit:4;stroke-opacity:1;stroke-dasharray:none"
         d="m 48.752579,195.3984 -27.615977,0 1.315033,4.17801 24.985792,1.04496 z"
         id="path9386"
         inkscape:connector-curvature="0" />
      <path
         sodipodi:nodetypes="cscsc"
         inkscape:connector-curvature="0"
         id="path9388"
         d="m 400.82685,129.17858 c 0,0 2.64636,-17.07564 8.18863,-22.81955 5.33295,-5.52606 21.62858,-8.622766 21.62858,-8.622766 0,0 -4.31985,11.008576 -8.06497,15.379806 -5.85699,6.83813 -21.75224,16.06251 -21.75224,16.06251 z"
         style="fill:#009100;stroke:#000000;stroke-width:0;stroke-linecap:butt;stroke-linejoin:miter;stroke-miterlimit:4;stroke-opacity:1;stroke-dasharray:none" />
      <path
         style="fill:#009100;stroke:#000000;stroke-width:0;stroke-linecap:butt;stroke-linejoin:miter;stroke-miterlimit:4;stroke-opacity:1;stroke-dasharray:none"
         d="m 393.84991,123.76005 c 0,0 -6.24613,-16.11044 -4.31808,-23.856184 1.85456,-7.452443 14.41868,-18.282063 14.41868,-18.282063 0,0 1.7632,11.693324 0.70603,17.351914 -1.65373,8.849923 -10.80663,24.786333 -10.80663,24.786333 z"
         id="path9390"
         inkscape:connector-curvature="0"
         sodipodi:nodetypes="cscsc" />
      <path
         sodipodi:nodetypes="cscsc"
         inkscape:connector-curvature="0"
         id="path9392"
         d="m 389.98594,128.19324 c 0,0 -17.07561,-2.64542 -22.8196,-8.18861 -5.52593,-5.33209 -8.6226,-21.62785 -8.6226,-21.62785 0,0 11.00771,4.31987 15.3797,8.06434 6.83728,5.85774 16.0625,21.75212 16.0625,21.75212 z"
         style="fill:#009100;stroke:#000000;stroke-width:0;stroke-linecap:butt;stroke-linejoin:miter;stroke-miterlimit:4;stroke-opacity:1;stroke-dasharray:none" />
    </g>
    <rect
       style="fill:#000000;fill-opacity:1;fill-rule:evenodd;stroke:#000000;stroke-width:9.98738766px;stroke-linecap:butt;stroke-linejoin:miter;stroke-opacity:1"
       id="rect3001"
       width="328.49567"
       height="203.58841"
       x="-444.91574"
       y="-152.54602"
       transform="matrix(0.00919299,-0.99995774,0.99997405,0.00720441,0,0)"
       inkscape:transform-center-x="475.00119"
       inkscape:transform-center-y="151.99838" />
    <rect
       style="fill:#000000"
       id="rect3059"
       width="32.426613"
       height="82.301704"
       x="-111.91531"
       y="-92.353912"
       ry="1.4152029"
       transform="matrix(0.00919299,-0.99995774,0.99997405,0.00720441,0,0)"
       inkscape:transform-center-x="473.75204"
       inkscape:transform-center-y="-32.962948" />
    <rect
       style="fill:#ff001c;fill-opacity:1"
       id="rect3061"
       width="42.295574"
       height="171.82281"
       x="-429.13205"
       y="-137.11452"
       ry="1.285566"
       transform="matrix(0.00919299,-0.99995774,0.99997405,0.00720441,0,0)"
       inkscape:transform-center-x="476.62289"
       inkscape:transform-center-y="279.30611" />
  </g>
</svg>
