<?xml version="1.0" encoding="UTF-8" standalone="no"?>
<!-- Created with Inkscape (http://www.inkscape.org/) -->

<svg
   xmlns:dc="http://purl.org/dc/elements/1.1/"
   xmlns:cc="http://creativecommons.org/ns#"
   xmlns:rdf="http://www.w3.org/1999/02/22-rdf-syntax-ns#"
   xmlns:svg="http://www.w3.org/2000/svg"
   xmlns="http://www.w3.org/2000/svg"
   xmlns:sodipodi="http://sodipodi.sourceforge.net/DTD/sodipodi-0.dtd"
   xmlns:inkscape="http://www.inkscape.org/namespaces/inkscape"
   width="175"
   height="175"
   id="svg7568"
   version="1.1"
   inkscape:version="0.48.3.1 r9886"
   sodipodi:docname="New document 32">
  <defs
     id="defs7570" />
  <sodipodi:namedview
     id="base"
     pagecolor="#ffffff"
     bordercolor="#666666"
     borderopacity="1.0"
     inkscape:pageopacity="0.0"
     inkscape:pageshadow="2"
     inkscape:zoom="2.8"
     inkscape:cx="48.450214"
     inkscape:cy="128.20195"
     inkscape:document-units="px"
     inkscape:current-layer="layer1"
     showgrid="false"
     inkscape:window-width="1366"
     inkscape:window-height="744"
     inkscape:window-x="0"
     inkscape:window-y="24"
     inkscape:window-maximized="1" />
  <metadata
     id="metadata7573">
    <rdf:RDF>
      <cc:Work
         rdf:about="">
        <dc:format>image/svg+xml</dc:format>
        <dc:type
           rdf:resource="http://purl.org/dc/dcmitype/StillImage" />
        <dc:title></dc:title>
      </cc:Work>
    </rdf:RDF>
  </metadata>
  <g
     inkscape:label="Layer 1"
     inkscape:groupmode="layer"
     id="layer1"
     transform="translate(0,-877.36218)">
    <rect
       style="fill:#ffffff;fill-opacity:1;fill-rule:evenodd;stroke:#000000;stroke-width:1px;stroke-linecap:butt;stroke-linejoin:miter;stroke-opacity:1"
       id="rect7576"
       width="145.46196"
       height="87.88327"
       x="13.131983"
       y="43.680168"
       transform="translate(0,877.36218)" />
    <rect
       style="fill:#d7ffff;fill-rule:evenodd;stroke:#000000;stroke-width:1px;stroke-linecap:butt;stroke-linejoin:miter;stroke-opacity:1;fill-opacity:1"
       id="rect8086"
       width="128.28938"
       height="69.700523"
       x="21.718279"
       y="52.771542"
       transform="translate(0,877.36218)" />
    <g
       id="g8112">
      <rect
         transform="translate(0,877.36218)"
         y="71.459366"
         x="22.223356"
         height="0.50507629"
         width="126.77415"
         id="rect8104"
         style="fill:#ffffff;fill-rule:evenodd;stroke:#000000;stroke-width:1px;stroke-linecap:butt;stroke-linejoin:miter;stroke-opacity:1;fill-opacity:1" />
      <rect
         style="fill:#ffffff;fill-rule:evenodd;stroke:#000000;stroke-width:1px;stroke-linecap:butt;stroke-linejoin:miter;stroke-opacity:1;fill-opacity:1"
         id="rect8108"
         width="126.77415"
         height="0.50507629"
         x="22.475895"
         y="963.72028" />
      <rect
         y="978.62103"
         x="21.970819"
         height="0.50507629"
         width="127.77922"
         id="rect8110"
         style="fill:#ffffff;fill-rule:evenodd;stroke:#000000;stroke-width:1.00395619999999997px;stroke-linecap:butt;stroke-linejoin:miter;stroke-opacity:1;fill-opacity:1" />
    </g>
    <path
       sodipodi:type="star"
       style="opacity:0.73662552;fill:#ffffff;fill-opacity:1;stroke:#000000;stroke-width:1;stroke-linecap:round;stroke-linejoin:round;stroke-miterlimit:4;stroke-opacity:1;stroke-dasharray:none;stroke-dashoffset:0"
       id="path8121"
       sodipodi:sides="10"
       sodipodi:cx="45"
       sodipodi:cy="99.64286"
       sodipodi:r1="16.613861"
       sodipodi:r2="7.0276632"
       sodipodi:arg1="-0.44441921"
       sodipodi:arg2="-0.13025994"
       inkscape:flatsided="false"
       inkscape:rounded="0"
       inkscape:randomized="0"
       d="m 59.999999,92.500004 -8.031873,6.23002 9.365594,3.950926 -10.159836,0.31917 5.254631,8.70132 -8.407087,-5.71358 -0.863422,10.12811 -3.443116,-9.56395 -6.651678,7.68631 2.836007,-9.76121 -9.899218,2.3086 8.031873,-6.23002 -9.365594,-3.950925 10.159836,-0.319176 -5.254631,-8.701321 8.407087,5.713583 0.863422,-10.128112 3.443116,9.563948 6.651678,-7.686307 -2.836007,9.761209 z"
       transform="translate(47.603436,898.12974)"
       inkscape:transform-center-x="0.6668605"
       inkscape:transform-center-y="-0.9388202" />
    <path
       inkscape:transform-center-y="-0.9388202"
       inkscape:transform-center-x="0.6668605"
       transform="translate(68.687336,884.42478)"
       d="m 59.999999,92.500004 -8.031873,6.23002 9.365594,3.950926 -10.159836,0.31917 5.254631,8.70132 -8.407087,-5.71358 -0.863422,10.12811 -3.443116,-9.56395 -6.651678,7.68631 2.836007,-9.76121 -9.899218,2.3086 8.031873,-6.23002 -9.365594,-3.950925 10.159836,-0.319176 -5.254631,-8.701321 8.407087,5.713583 0.863422,-10.128112 3.443116,9.563948 6.651678,-7.686307 -2.836007,9.761209 z"
       inkscape:randomized="0"
       inkscape:rounded="0"
       inkscape:flatsided="false"
       sodipodi:arg2="-0.13025994"
       sodipodi:arg1="-0.44441921"
       sodipodi:r2="7.0276632"
       sodipodi:r1="16.613861"
       sodipodi:cy="99.64286"
       sodipodi:cx="45"
       sodipodi:sides="10"
       id="path8123"
       style="opacity:0.73662552;fill:#ffffff;fill-opacity:1;stroke:#000000;stroke-width:1;stroke-linecap:round;stroke-linejoin:round;stroke-miterlimit:4;stroke-opacity:1;stroke-dasharray:none;stroke-dashoffset:0"
       sodipodi:type="star" />
    <path
       sodipodi:type="star"
       style="opacity:0.73662552;fill:#ffffff;fill-opacity:1;stroke:#000000;stroke-width:1;stroke-linecap:round;stroke-linejoin:round;stroke-miterlimit:4;stroke-opacity:1;stroke-dasharray:none;stroke-dashoffset:0"
       id="path8125"
       sodipodi:sides="10"
       sodipodi:cx="45"
       sodipodi:cy="99.64286"
       sodipodi:r1="16.613861"
       sodipodi:r2="7.0276632"
       sodipodi:arg1="-0.44441921"
       sodipodi:arg2="-0.13025994"
       inkscape:flatsided="false"
       inkscape:rounded="0"
       inkscape:randomized="0"
       d="m 59.999999,92.500004 -8.031873,6.23002 9.365594,3.950926 -10.159836,0.31917 5.254631,8.70132 -8.407087,-5.71358 -0.863422,10.12811 -3.443116,-9.56395 -6.651678,7.68631 2.836007,-9.76121 -9.899218,2.3086 8.031873,-6.23002 -9.365594,-3.950925 10.159836,-0.319176 -5.254631,-8.701321 8.407087,5.713583 0.863422,-10.128112 3.443116,9.563948 6.651678,-7.686307 -2.836007,9.761209 z"
       transform="translate(91.632541,850.45419)"
       inkscape:transform-center-x="0.6668605"
       inkscape:transform-center-y="-0.9388202" />
    <path
       inkscape:transform-center-y="-0.9388202"
       inkscape:transform-center-x="0.6668605"
       transform="translate(97.843471,872.73789)"
       d="m 59.999999,92.500004 -8.031873,6.23002 9.365594,3.950926 -10.159836,0.31917 5.254631,8.70132 -8.407087,-5.71358 -0.863422,10.12811 -3.443116,-9.56395 -6.651678,7.68631 2.836007,-9.76121 -9.899218,2.3086 8.031873,-6.23002 -9.365594,-3.950925 10.159836,-0.319176 -5.254631,-8.701321 8.407087,5.713583 0.863422,-10.128112 3.443116,9.563948 6.651678,-7.686307 -2.836007,9.761209 z"
       inkscape:randomized="0"
       inkscape:rounded="0"
       inkscape:flatsided="false"
       sodipodi:arg2="-0.13025994"
       sodipodi:arg1="-0.44441921"
       sodipodi:r2="7.0276632"
       sodipodi:r1="16.613861"
       sodipodi:cy="99.64286"
       sodipodi:cx="45"
       sodipodi:sides="10"
       id="path8127"
       style="opacity:0.73662552;fill:#ffffff;fill-opacity:1;stroke:#000000;stroke-width:1;stroke-linecap:round;stroke-linejoin:round;stroke-miterlimit:4;stroke-opacity:1;stroke-dasharray:none;stroke-dashoffset:0"
       sodipodi:type="star" />
    <path
       sodipodi:type="star"
       style="opacity:0.73662552;fill:#ffffff;fill-opacity:1;stroke:#000000;stroke-width:1;stroke-linecap:round;stroke-linejoin:round;stroke-miterlimit:4;stroke-opacity:1;stroke-dasharray:none;stroke-dashoffset:0"
       id="path8129"
       sodipodi:sides="10"
       sodipodi:cx="45"
       sodipodi:cy="99.64286"
       sodipodi:r1="16.613861"
       sodipodi:r2="7.0276632"
       sodipodi:arg1="-0.44441921"
       sodipodi:arg2="-0.13025994"
       inkscape:flatsided="false"
       inkscape:rounded="0"
       inkscape:randomized="0"
       d="m 59.999999,92.500004 -8.031873,6.23002 9.365594,3.950926 -10.159836,0.31917 5.254631,8.70132 -8.407087,-5.71358 -0.863422,10.12811 -3.443116,-9.56395 -6.651678,7.68631 2.836007,-9.76121 -9.899218,2.3086 8.031873,-6.23002 -9.365594,-3.950925 10.159836,-0.319176 -5.254631,-8.701321 8.407087,5.713583 0.863422,-10.128112 3.443116,9.563948 6.651678,-7.686307 -2.836007,9.761209 z"
       transform="translate(65.496131,887.59731)"
       inkscape:transform-center-x="0.6668605"
       inkscape:transform-center-y="-0.9388202" />
    <path
       inkscape:transform-center-y="-0.9388202"
       inkscape:transform-center-x="0.6668605"
       transform="translate(65.891516,886.92806)"
       d="m 59.999999,92.500004 -8.031873,6.23002 9.365594,3.950926 -10.159836,0.31917 5.254631,8.70132 -8.407087,-5.71358 -0.863422,10.12811 -3.443116,-9.56395 -6.651678,7.68631 2.836007,-9.76121 -9.899218,2.3086 8.031873,-6.23002 -9.365594,-3.950925 10.159836,-0.319176 -5.254631,-8.701321 8.407087,5.713583 0.863422,-10.128112 3.443116,9.563948 6.651678,-7.686307 -2.836007,9.761209 z"
       inkscape:randomized="0"
       inkscape:rounded="0"
       inkscape:flatsided="false"
       sodipodi:arg2="-0.13025994"
       sodipodi:arg1="-0.44441921"
       sodipodi:r2="7.0276632"
       sodipodi:r1="16.613861"
       sodipodi:cy="99.64286"
       sodipodi:cx="45"
       sodipodi:sides="10"
       id="path8131"
       style="opacity:0.73662552;fill:#ffffff;fill-opacity:1;stroke:#000000;stroke-width:1;stroke-linecap:round;stroke-linejoin:round;stroke-miterlimit:4;stroke-opacity:1;stroke-dasharray:none;stroke-dashoffset:0"
       sodipodi:type="star" />
    <path
       sodipodi:type="star"
       style="opacity:0.73662552;fill:#ffffff;fill-opacity:1;stroke:#000000;stroke-width:1;stroke-linecap:round;stroke-linejoin:round;stroke-miterlimit:4;stroke-opacity:1;stroke-dasharray:none;stroke-dashoffset:0"
       id="path8133"
       sodipodi:sides="10"
       sodipodi:cx="45"
       sodipodi:cy="99.64286"
       sodipodi:r1="16.613861"
       sodipodi:r2="7.0276632"
       sodipodi:arg1="-0.44441921"
       sodipodi:arg2="-0.13025994"
       inkscape:flatsided="false"
       inkscape:rounded="0"
       inkscape:randomized="0"
       d="m 59.999999,92.500004 -8.031873,6.23002 9.365594,3.950926 -10.159836,0.31917 5.254631,8.70132 -8.407087,-5.71358 -0.863422,10.12811 -3.443116,-9.56395 -6.651678,7.68631 2.836007,-9.76121 -9.899218,2.3086 8.031873,-6.23002 -9.365594,-3.950925 10.159836,-0.319176 -5.254631,-8.701321 8.407087,5.713583 0.863422,-10.128112 3.443116,9.563948 6.651678,-7.686307 -2.836007,9.761209 z"
       transform="translate(77.504112,889.07639)"
       inkscape:transform-center-x="0.6668605"
       inkscape:transform-center-y="-0.9388202" />
    <path
       inkscape:transform-center-y="-0.9388202"
       inkscape:transform-center-x="0.6668605"
       transform="translate(-8.1157625,895.22243)"
       d="m 59.999999,92.500004 -8.031873,6.23002 9.365594,3.950926 -10.159836,0.31917 5.254631,8.70132 -8.407087,-5.71358 -0.863422,10.12811 -3.443116,-9.56395 -6.651678,7.68631 2.836007,-9.76121 -9.899218,2.3086 8.031873,-6.23002 -9.365594,-3.950925 10.159836,-0.319176 -5.254631,-8.701321 8.407087,5.713583 0.863422,-10.128112 3.443116,9.563948 6.651678,-7.686307 -2.836007,9.761209 z"
       inkscape:randomized="0"
       inkscape:rounded="0"
       inkscape:flatsided="false"
       sodipodi:arg2="-0.13025994"
       sodipodi:arg1="-0.44441921"
       sodipodi:r2="7.0276632"
       sodipodi:r1="16.613861"
       sodipodi:cy="99.64286"
       sodipodi:cx="45"
       sodipodi:sides="10"
       id="path8135"
       style="opacity:0.73662552;fill:#ffffff;fill-opacity:1;stroke:#000000;stroke-width:1;stroke-linecap:round;stroke-linejoin:round;stroke-miterlimit:4;stroke-opacity:1;stroke-dasharray:none;stroke-dashoffset:0"
       sodipodi:type="star" />
    <path
       sodipodi:type="star"
       style="opacity:0.73662552;fill:#ffffff;fill-opacity:1;stroke:#000000;stroke-width:1;stroke-linecap:round;stroke-linejoin:round;stroke-miterlimit:4;stroke-opacity:1;stroke-dasharray:none;stroke-dashoffset:0"
       id="path8137"
       sodipodi:sides="10"
       sodipodi:cx="45"
       sodipodi:cy="99.64286"
       sodipodi:r1="16.613861"
       sodipodi:r2="7.0276632"
       sodipodi:arg1="-0.44441921"
       sodipodi:arg2="-0.13025994"
       inkscape:flatsided="false"
       inkscape:rounded="0"
       inkscape:randomized="0"
       d="m 59.999999,92.500004 -8.031873,6.23002 9.365594,3.950926 -10.159836,0.31917 5.254631,8.70132 -8.407087,-5.71358 -0.863422,10.12811 -3.443116,-9.56395 -6.651678,7.68631 2.836007,-9.76121 -9.899218,2.3086 8.031873,-6.23002 -9.365594,-3.950925 10.159836,-0.319176 -5.254631,-8.701321 8.407087,5.713583 0.863422,-10.128112 3.443116,9.563948 6.651678,-7.686307 -2.836007,9.761209 z"
       transform="translate(16.444376,917.10401)"
       inkscape:transform-center-x="0.6668605"
       inkscape:transform-center-y="-0.9388202" />
    <path
       inkscape:transform-center-y="-0.9388202"
       inkscape:transform-center-x="0.6668605"
       transform="translate(96.843213,844.52688)"
       d="m 59.999999,92.500004 -8.031873,6.23002 9.365594,3.950926 -10.159836,0.31917 5.254631,8.70132 -8.407087,-5.71358 -0.863422,10.12811 -3.443116,-9.56395 -6.651678,7.68631 2.836007,-9.76121 -9.899218,2.3086 8.031873,-6.23002 -9.365594,-3.950925 10.159836,-0.319176 -5.254631,-8.701321 8.407087,5.713583 0.863422,-10.128112 3.443116,9.563948 6.651678,-7.686307 -2.836007,9.761209 z"
       inkscape:randomized="0"
       inkscape:rounded="0"
       inkscape:flatsided="false"
       sodipodi:arg2="-0.13025994"
       sodipodi:arg1="-0.44441921"
       sodipodi:r2="7.0276632"
       sodipodi:r1="16.613861"
       sodipodi:cy="99.64286"
       sodipodi:cx="45"
       sodipodi:sides="10"
       id="path8139"
       style="opacity:0.73662552;fill:#ffffff;fill-opacity:1;stroke:#000000;stroke-width:1;stroke-linecap:round;stroke-linejoin:round;stroke-miterlimit:4;stroke-opacity:1;stroke-dasharray:none;stroke-dashoffset:0"
       sodipodi:type="star" />
    <path
       sodipodi:type="star"
       style="opacity:0.73662552;fill:#ffffff;fill-opacity:1;stroke:#000000;stroke-width:1;stroke-linecap:round;stroke-linejoin:round;stroke-miterlimit:4;stroke-opacity:1;stroke-dasharray:none;stroke-dashoffset:0"
       id="path8141"
       sodipodi:sides="10"
       sodipodi:cx="45"
       sodipodi:cy="99.64286"
       sodipodi:r1="16.613861"
       sodipodi:r2="7.0276632"
       sodipodi:arg1="-0.44441921"
       sodipodi:arg2="-0.13025994"
       inkscape:flatsided="false"
       inkscape:rounded="0"
       inkscape:randomized="0"
       d="m 59.999999,92.500004 -8.031873,6.23002 9.365594,3.950926 -10.159836,0.31917 5.254631,8.70132 -8.407087,-5.71358 -0.863422,10.12811 -3.443116,-9.56395 -6.651678,7.68631 2.836007,-9.76121 -9.899218,2.3086 8.031873,-6.23002 -9.365594,-3.950925 10.159836,-0.319176 -5.254631,-8.701321 8.407087,5.713583 0.863422,-10.128112 3.443116,9.563948 6.651678,-7.686307 -2.836007,9.761209 z"
       transform="translate(-9.8662825,890.90002)"
       inkscape:transform-center-x="0.6668605"
       inkscape:transform-center-y="-0.9388202" />
    <path
       inkscape:transform-center-y="-0.9388202"
       inkscape:transform-center-x="0.6668605"
       transform="translate(0.37331051,877.33137)"
       d="m 59.999999,92.500004 -8.031873,6.23002 9.365594,3.950926 -10.159836,0.31917 5.254631,8.70132 -8.407087,-5.71358 -0.863422,10.12811 -3.443116,-9.56395 -6.651678,7.68631 2.836007,-9.76121 -9.899218,2.3086 8.031873,-6.23002 -9.365594,-3.950925 10.159836,-0.319176 -5.254631,-8.701321 8.407087,5.713583 0.863422,-10.128112 3.443116,9.563948 6.651678,-7.686307 -2.836007,9.761209 z"
       inkscape:randomized="0"
       inkscape:rounded="0"
       inkscape:flatsided="false"
       sodipodi:arg2="-0.13025994"
       sodipodi:arg1="-0.44441921"
       sodipodi:r2="7.0276632"
       sodipodi:r1="16.613861"
       sodipodi:cy="99.64286"
       sodipodi:cx="45"
       sodipodi:sides="10"
       id="path8143"
       style="opacity:0.73662552;fill:#ffffff;fill-opacity:1;stroke:#000000;stroke-width:1;stroke-linecap:round;stroke-linejoin:round;stroke-miterlimit:4;stroke-opacity:1;stroke-dasharray:none;stroke-dashoffset:0"
       sodipodi:type="star" />
    <path
       sodipodi:type="star"
       style="opacity:0.73662552;fill:#ffffff;fill-opacity:1;stroke:#000000;stroke-width:1;stroke-linecap:round;stroke-linejoin:round;stroke-miterlimit:4;stroke-opacity:1;stroke-dasharray:none;stroke-dashoffset:0"
       id="path8145"
       sodipodi:sides="10"
       sodipodi:cx="45"
       sodipodi:cy="99.64286"
       sodipodi:r1="16.613861"
       sodipodi:r2="7.0276632"
       sodipodi:arg1="-0.44441921"
       sodipodi:arg2="-0.13025994"
       inkscape:flatsided="false"
       inkscape:rounded="0"
       inkscape:randomized="0"
       d="m 59.999999,92.500004 -8.031873,6.23002 9.365594,3.950926 -10.159836,0.31917 5.254631,8.70132 -8.407087,-5.71358 -0.863422,10.12811 -3.443116,-9.56395 -6.651678,7.68631 2.836007,-9.76121 -9.899218,2.3086 8.031873,-6.23002 -9.365594,-3.950925 10.159836,-0.319176 -5.254631,-8.701321 8.407087,5.713583 0.863422,-10.128112 3.443116,9.563948 6.651678,-7.686307 -2.836007,9.761209 z"
       transform="translate(76.518284,852.80652)"
       inkscape:transform-center-x="0.6668605"
       inkscape:transform-center-y="-0.9388202" />
  </g>
</svg>
